<?xml version="1.0" encoding="UTF-8"?>
<!-- Generator: visioncortex VTracer 0.6.5 -->
<svg version="1.1" xmlns="http://www.w3.org/2000/svg" width="508" height="516"><defs><clipPath id="bg-clip" clipPathUnits="userSpaceOnUse"><path d="M248.0 512.5 L222.0 512.5 L191.0 485.5 L176.0 483.5 L168.0 477.5 L155.0 477.5 L143.0 486.5 L126.0 492.5 L82.0 493.5 L67.5 489.0 L68.5 479.0 L89.5 464.0 L94.5 454.0 L94.5 447.0 L104.5 440.0 L110.5 427.0 L107.0 422.5 L98.5 419.0 L101.5 411.0 L96.5 405.0 L96.5 396.0 L110.0 393.5 L115.5 388.0 L115.5 383.0 L112.5 380.0 L111.5 371.0 L104.5 358.0 L102.5 347.0 L99.0 343.5 L87.5 342.0 L87.5 330.0 L84.5 321.0 L85.5 316.0 L89.5 312.0 L89.5 307.0 L70.0 295.5 L30.0 305.5 L24.0 300.5 L18.0 299.5 L7.5 290.0 L2.5 280.0 L2.5 259.0 L12.0 251.5 L29.0 245.5 L40.5 234.0 L35.0 226.5 L29.5 227.0 L29.5 215.0 L33.5 205.0 L47.5 195.0 L47.5 191.0 L62.0 174.5 L74.0 174.5 L77.5 171.0 L73.5 128.0 L74.5 22.0 L80.0 14.5 L89.0 14.5 L91.0 12.5 L130.0 11.5 L133.0 8.5 L142.0 8.5 L144.0 6.5 L174.0 5.5 L184.0 2.5 L403.0 3.5 L408.5 15.0 L412.5 51.0 L412.5 117.0 L410.5 123.0 L407.5 185.0 L392.5 268.0 L387.5 283.0 L385.5 303.0 L377.5 331.0 L371.5 343.0 L363.5 370.0 L354.5 384.0 L345.5 407.0 L320.5 448.0 L313.5 452.0 L276.0 494.5 L259.0 503.5 L248.0 512.5 Z"/><path d="M504.0 212.5 L502.0 210.5 L500.0 212.5 L493.5 211.0 L496.5 202.0 L502.0 195.5 L504.5 196.0 L504.0 212.5 Z"/><path d="M504.0 259.5 L494.0 259.5 L498.5 254.0 L487.5 247.0 L488.0 243.5 L493.0 243.5 L498.0 247.5 L501.5 244.0 L496.5 238.0 L496.5 234.0 L500.5 230.0 L496.5 224.0 L500.5 217.0 L504.0 215.5 L504.5 243.0 L500.5 247.0 L504.5 251.0 L504.0 259.5 Z"/></clipPath></defs><g clip-path="url(#bg-clip)">
<path d="M0 0 C167.64 0 335.28 0 508 0 C508 170.28 508 340.56 508 516 C340.36 516 172.72 516 0 516 C0 345.72 0 175.44 0 0 Z " fill="#4E3B35" transform="translate(0,0)"/>
<path d="M0 0 C167.64 0 335.28 0 508 0 C508 170.28 508 340.56 508 516 C420.88 516 333.76 516 244 516 C244.99 515.67 245.98 515.34 247 515 C247 514.34 247 513.68 247 513 C248.32 513 249.64 513 251 513 C251 512.34 251 511.68 251 511 C252.65 510.34 254.3 509.68 256 509 C256 508.34 256 507.68 256 507 C256.66 507 257.32 507 258 507 C258 506.34 258 505.68 258 505 C259.32 505 260.64 505 262 505 C262 504.34 262 503.68 262 503 C263.32 503 264.64 503 266 503 C266 502.34 266 501.68 266 501 C266.99 501 267.98 501 269 501 C269 500.34 269 499.68 269 499 C269.66 499 270.32 499 271 499 C271 498.34 271 497.68 271 497 C273.33 495.45 275.59 494.16 278.19 493.12 C280.71 491.56 281.13 489.76 282 487 C282.66 487 283.32 487 284 487 C284 486.34 284 485.68 284 485 C284.66 485 285.32 485 286 485 C286 484.34 286 483.68 286 483 C286.99 483 287.98 483 289 483 C289.11 482.73 289.11 482.73 289.69 481.38 C291.46 478.18 293.54 475.71 296 473 C296.66 473 297.32 473 298 473 C298 472.34 298 471.68 298 471 C298.66 471 299.32 471 300 471 C300.33 469.68 300.66 468.36 301 467 C301.66 467 302.32 467 303 467 C303 466.34 303 465.68 303 465 C303.66 465 304.32 465 305 465 C305 464.34 305 463.68 305 463 C305.66 463 306.32 463 307 463 C307.25 462.28 307.5 461.56 307.75 460.81 C309.13 457.71 310.86 455.63 313 453 C314.32 450.88 315.6 448.74 316.85 446.57 C317.23 446.05 317.61 445.54 318 445 C318.66 445 319.32 445 320 445 C320 444.34 320 443.68 320 443 C320.66 443 321.32 443 322 443 C322.1 442.6 322.1 442.6 322.62 440.56 C324.09 436.76 325.97 433.85 328.27 430.52 C330.18 427.74 332 424.91 333.81 422.06 C334.4 421.15 334.98 420.23 335.58 419.29 C337 417 337 417 338 415 C338.66 415 339.32 415 340 415 C340.29 414.09 340.58 413.19 340.88 412.25 C341.77 409.68 342.71 407.39 344 405 C344.66 405 345.32 405 346 405 C346.25 404.18 346.49 403.36 346.75 402.52 C348.21 398.41 350.08 394.63 352.06 390.75 C352.43 390.03 352.79 389.31 353.17 388.57 C354.11 386.71 355.05 384.86 356 383 C356.33 382.34 356.66 381.68 357 381 C357.66 381 358.32 381 359 381 C359.31 379.72 359.62 378.44 359.94 377.12 C360.48 374.9 360.97 373.05 362 371 C362.66 371 363.32 371 364 371 C364.1 370.17 364.21 369.34 364.32 368.49 C365.1 364.47 366.43 360.92 367.94 357.12 C370.05 351.8 371.71 346.59 373 341 C373.66 341 374.32 341 375 341 C375.05 340.71 375.05 340.71 375.3 339.23 C376.37 333.33 378.01 327.84 379.98 322.18 C381.42 317.69 382.41 313.13 383.39 308.52 C384 306 384 306 385 305 C385.23 303.54 385.4 302.08 385.54 300.61 C386.77 289.38 388.63 278.89 391.94 268.08 C393.49 262.97 394.5 258.3 394.73 252.95 C395.12 248.64 396.04 244.47 396.94 240.25 C397.11 239.44 397.28 238.64 397.45 237.81 C398.19 234.41 398.98 231.08 399.99 227.74 C401.07 223.74 401.71 219.83 402.25 215.73 C402.36 214.97 402.47 214.21 402.57 213.42 C402.91 211.01 403.24 208.6 403.56 206.19 C403.89 203.76 404.22 201.33 404.56 198.9 C404.77 197.4 404.97 195.89 405.18 194.38 C405.89 189.22 405.89 189.22 407 187 C407.21 185 407.37 183 407.5 181 C407.58 179.78 407.67 178.56 407.75 177.31 C407.83 176.03 407.92 174.75 408 173.44 C408.94 159.23 408.94 159.23 409.53 154.46 C410.4 147.18 410.4 139.83 410.61 132.51 C410.64 131.35 410.68 130.18 410.72 128.98 C410.75 127.93 410.78 126.87 410.81 125.79 C410.98 123.36 411.39 121.34 412 119 C414.43 93.47 414.96 65.46 411.29 40.04 C410.86 37.04 410.5 34.02 410.14 31.01 C409.97 29.57 409.79 28.13 409.61 26.69 C409.08 22.43 408.92 18.28 409 14 C408.34 14 407.68 14 407 14 C406.34 11.36 405.68 8.72 405 6 C393.12 5.67 381.24 5.34 369 5 C369 4.34 369 3.68 369 3 C305.31 3 241.62 3 176 3 C176 3.66 176 4.32 176 5 C172.14 5.91 168.57 6.12 164.61 6.1 C163.4 6.09 162.2 6.09 160.96 6.09 C159.72 6.08 158.47 6.07 157.19 6.06 C155.92 6.06 154.66 6.05 153.35 6.05 C150.24 6.04 147.12 6.02 144 6 C144 6.66 144 7.32 144 8 C143.22 8.05 142.44 8.1 141.63 8.15 C140.62 8.22 139.61 8.3 138.56 8.38 C137.55 8.44 136.54 8.51 135.5 8.59 C134.68 8.72 133.85 8.86 133 9 C132.67 9.66 132.34 10.32 132 11 C118.47 11.33 104.94 11.66 91 12 C91 12.66 91 13.32 91 14 C87.37 14.33 83.74 14.66 80 15 C79.67 15.99 79.34 16.98 79 18 C78.34 18 77.68 18 77 18 C72.84 63.78 72.56 109.73 76.56 155.55 C77.09 161.73 77.07 167.79 77 174 C72.05 174.33 67.1 174.66 62 175 C62 175.66 62 176.32 62 177 C61.34 177 60.68 177 60 177 C59.85 177.31 59.85 177.31 59.06 178.88 C58.38 180.25 57.69 181.62 57 183 C56.34 183 55.68 183 55 183 C55 183.66 55 184.32 55 185 C54.34 185 53.68 185 53 185 C53 185.66 53 186.32 53 187 C52.34 187 51.68 187 51 187 C50.67 188.32 50.34 189.64 50 191 C49.34 191 48.68 191 48 191 C47.84 191.99 47.84 191.99 47 197 C46.34 197 45.68 197 45 197 C45 197.66 45 198.32 45 199 C43.02 199 41.04 199 39 199 C39 199.66 39 200.32 39 201 C38.34 201 37.68 201 37 201 C36.71 201.59 36.42 202.19 36.12 202.8 C35.17 204.66 34.1 206.47 33 208.25 C29.76 214.59 29.64 222.02 29 229 C32.08 227.79 35.06 226.52 38 225 C38.33 227.64 38.66 230.28 39 233 C39.66 233 40.32 233 41 233 C40.25 235.44 40.25 235.44 39 238 C36.88 238.81 36.88 238.81 35 239 C35 239.66 35 240.32 35 241 C34.34 241 33.68 241 33 241 C33 241.66 33 242.32 33 243 C32.34 243 31.68 243 31 243 C31 243.66 31 244.32 31 245 C27.63 246.5 25.8 247 22 247 C22 247.66 22 248.32 22 249 C20.35 249 18.7 249 17 249 C17 249.66 17 250.32 17 251 C15.35 251 13.7 251 12 251 C12 251.66 12 252.32 12 253 C11.34 253 10.68 253 10 253 C10 253.66 10 254.32 10 255 C8.68 255 7.36 255 6 255 C5.73 255.54 5.46 256.07 5.19 256.62 C3.79 259.42 2.4 262.21 1 265 C0.67 265 0.34 265 0 265 C0 177.55 0 90.1 0 0 Z " fill="#F7C26F" transform="translate(0,0)"/>
<path d="M0 0 C4.12 0 8.23 0 12.35 -0 C19.22 -0 26.09 -0 32.96 0 C40.88 0.01 48.8 0.01 56.72 0 C63.59 -0 70.46 -0 77.33 -0 C81.41 0 85.48 0 89.55 -0 C93.36 -0 97.17 -0 100.98 0 C102.37 0 103.76 0 105.15 0 C111.96 -0.01 118.59 0.07 125.32 1.13 C125.32 1.79 125.32 2.45 125.32 3.13 C125.86 3.13 125.86 3.13 128.6 3.09 C132.6 3.03 136.6 3 140.6 2.97 C142.33 2.95 144.06 2.93 145.79 2.91 C148.28 2.87 150.77 2.85 153.25 2.84 C153.64 2.83 153.64 2.83 155.61 2.79 C157.79 2.79 157.79 2.79 161.32 3.13 C163.61 6.57 163.5 8.12 163.32 12.13 C163.98 12.13 164.64 12.13 165.32 12.13 C165.88 16.33 166.43 20.52 166.98 24.72 C167.16 26.14 167.35 27.56 167.54 28.98 C169.48 43.65 170.5 58.03 170.45 72.82 C170.45 73.63 170.45 74.44 170.45 75.27 C170.43 85.75 170.3 96.22 169.89 106.7 C169.85 107.71 169.81 108.73 169.77 109.77 C169.46 116.63 169.46 116.63 168.82 119.07 C168.2 121.67 168.14 124.12 168.08 126.8 C168.05 127.91 168.02 129.02 167.98 130.17 C167.95 131.36 167.92 132.54 167.89 133.76 C167.61 142.48 167.16 151.09 166.06 159.75 C165.27 166.02 164.94 172.28 164.75 178.59 C164.73 179.33 164.7 180.07 164.67 180.83 C164.66 181.15 164.66 181.15 164.61 182.77 C164.27 185.59 163.54 188.27 162.83 191.02 C162.04 194.31 161.59 197.65 161.14 201 C160.93 202.48 160.73 203.96 160.52 205.44 C160.2 207.72 159.89 210.01 159.58 212.29 C158.42 220.81 157.04 228.95 154.32 237.13 C153.04 242.64 152.31 248.18 151.73 253.79 C151.06 260.05 149.97 265.73 147.89 271.7 C145.18 279.46 144.18 287.26 143.31 295.42 C143.21 296.36 143.11 297.3 143 298.27 C142.92 299.12 142.83 299.96 142.75 300.82 C142.3 303.26 141.45 304.94 140.32 307.13 C139.98 308.63 139.68 310.14 139.43 311.66 C138.33 317.52 136.56 323.1 134.7 328.76 C134.54 329.26 134.54 329.26 133.72 331.8 C132.92 334.25 132.13 336.69 131.32 339.13 C130.66 339.13 130 339.13 129.32 339.13 C129.29 339.44 129.29 339.44 129.1 341.01 C127.99 348.49 125.59 354.94 122.66 361.85 C121.66 364.31 120.85 366.54 120.32 369.13 C119.66 369.13 119 369.13 118.32 369.13 C117.83 370.78 117.83 370.78 115.32 379.13 C114.66 379.13 114 379.13 113.32 379.13 C113.08 379.95 112.83 380.77 112.58 381.62 C111.11 385.73 109.25 389.51 107.26 393.38 C106.9 394.1 106.53 394.82 106.16 395.56 C105.22 397.42 104.27 399.28 103.32 401.13 C102.99 401.79 102.66 402.45 102.32 403.13 C101.66 403.13 101 403.13 100.32 403.13 C100.04 404.04 99.75 404.95 99.45 405.88 C98.56 408.46 97.61 410.75 96.32 413.13 C95.66 413.13 95 413.13 94.32 413.13 C94.1 413.98 93.87 414.83 93.63 415.7 C92.11 419.71 90.02 422.62 87.45 426.01 C83.86 430.88 80.77 435.57 78.32 441.13 C77.66 441.13 77 441.13 76.32 441.13 C76.32 441.79 76.32 442.45 76.32 443.13 C75.66 443.13 75 443.13 74.32 443.13 C74.09 443.82 73.85 444.5 73.61 445.21 C72.06 448.74 70.02 451.8 67.82 454.95 C67.42 455.54 67.02 456.14 66.6 456.76 C65.56 458.26 64.45 459.7 63.32 461.13 C62.66 461.13 62 461.13 61.32 461.13 C61.32 461.79 61.32 462.45 61.32 463.13 C60.66 463.13 60 463.13 59.32 463.13 C59.32 463.79 59.32 464.45 59.32 465.13 C58.66 465.13 58 465.13 57.32 465.13 C56.99 466.45 56.66 467.77 56.32 469.13 C55.66 469.13 55 469.13 54.32 469.13 C54.32 469.79 54.32 470.45 54.32 471.13 C53.66 471.13 53 471.13 52.32 471.13 C51.66 472.45 51 473.77 50.32 475.13 C49.66 475.13 49 475.13 48.32 475.13 C48.17 475.44 48.17 475.44 47.39 477.01 C46.7 478.38 46.01 479.76 45.32 481.13 C44.33 481.13 43.34 481.13 42.32 481.13 C42.32 481.79 42.32 482.45 42.32 483.13 C41.66 483.13 41 483.13 40.32 483.13 C40.32 483.79 40.32 484.45 40.32 485.13 C39.66 485.13 39 485.13 38.32 485.13 C38.12 485.86 37.91 486.58 37.7 487.32 C35.84 491.13 33.78 492.67 30.32 495.13 C29.33 495.13 28.34 495.13 27.32 495.13 C27.32 495.79 27.32 496.45 27.32 497.13 C26.66 497.13 26 497.13 25.32 497.13 C25.32 497.79 25.32 498.45 25.32 499.13 C24.33 499.13 23.34 499.13 22.32 499.13 C22.32 499.79 22.32 500.45 22.32 501.13 C21 501.13 19.68 501.13 18.32 501.13 C18.32 501.79 18.32 502.45 18.32 503.13 C17 503.13 15.68 503.13 14.32 503.13 C13.99 503.79 13.66 504.45 13.32 505.13 C13.32 504.47 13.32 503.81 13.32 503.13 C12.66 502.8 12 502.47 11.32 502.13 C11.65 501.47 11.98 500.81 12.32 500.13 C13.64 500.13 14.96 500.13 16.32 500.13 C16.32 499.55 16.32 498.97 16.32 498.37 C16.3 463.96 16.28 429.55 16.27 395.14 C16.27 391.01 16.27 386.88 16.27 382.75 C16.27 382.34 16.27 382.34 16.27 380.26 C16.26 366.94 16.26 353.62 16.25 340.29 C16.24 326.63 16.23 312.97 16.23 299.31 C16.23 290.87 16.22 282.43 16.22 274 C16.21 268.22 16.21 262.44 16.21 256.66 C16.21 253.33 16.21 249.99 16.21 246.65 C16.2 243.04 16.2 239.43 16.2 235.81 C16.2 235.28 16.2 235.28 16.2 232.59 C16.2 231.63 16.2 230.67 16.2 229.68 C16.2 228.84 16.2 228.01 16.2 227.15 C16.32 225.13 16.32 225.13 17.32 223.13 C28.13 223.11 38.93 223.09 49.74 223.08 C54.75 223.08 59.77 223.07 64.79 223.06 C69.62 223.05 74.46 223.04 79.3 223.04 C81.15 223.04 83 223.03 84.85 223.03 C87.43 223.02 90.01 223.02 92.59 223.02 C93.36 223.02 94.14 223.01 94.93 223.01 C100.21 223.02 100.21 223.02 101.32 224.13 C102.92 224.26 104.52 224.31 106.12 224.34 C107.14 224.36 108.16 224.38 109.21 224.4 C110.32 224.42 111.43 224.43 112.58 224.45 C113.71 224.47 114.84 224.49 116 224.51 C119.63 224.58 123.26 224.64 126.89 224.7 C129.34 224.74 131.79 224.78 134.24 224.83 C140.27 224.94 146.3 225.04 152.32 225.13 C152.31 223.87 152.3 222.61 152.29 221.3 C152.26 217.91 152.69 215.14 153.7 211.88 C155.81 203.14 156.43 194.09 157.32 185.13 C110.46 185.13 63.6 185.13 15.32 185.13 C17.56 104.71 17.56 104.71 18.82 98.81 C19.35 95.99 19.53 93.31 19.64 90.44 C19.66 89.88 19.66 89.88 19.77 87.03 C19.8 85.81 19.84 84.59 19.88 83.34 C19.93 82.06 19.97 80.79 20.01 79.47 C20.45 65.27 20.44 51.07 20.39 36.87 C20.38 33.38 20.38 29.89 20.37 26.4 C20.36 19.65 20.34 12.89 20.32 6.13 C7.12 6.13 -6.08 6.13 -19.68 6.13 C-20.8 20.76 -20.8 20.76 -20.96 26.39 C-20.97 27.03 -20.97 27.03 -21.07 30.26 C-21.1 31.62 -21.14 32.98 -21.18 34.34 C-21.22 35.81 -21.26 37.27 -21.3 38.74 C-21.41 42.66 -21.51 46.58 -21.61 50.51 C-21.68 52.96 -21.74 55.42 -21.81 57.88 C-22.41 80.51 -22.91 103.14 -23.27 125.78 C-23.3 127.71 -23.33 129.65 -23.36 131.59 C-23.67 150.77 -23.72 169.95 -23.68 189.13 C-30.28 189.13 -36.88 189.13 -43.68 189.13 C-43.68 189.79 -43.68 190.45 -43.68 191.13 C-44.79 191.16 -45.91 191.18 -47.06 191.21 C-51.18 191.3 -55.3 191.4 -59.43 191.51 C-61.22 191.55 -63 191.59 -64.79 191.63 C-67.36 191.69 -69.92 191.75 -72.48 191.82 C-72.89 191.83 -72.89 191.83 -74.92 191.87 C-80.56 192.02 -80.56 192.02 -81.68 193.13 C-83.89 193.22 -86.12 193.24 -88.34 193.23 C-88.67 193.23 -88.67 193.23 -90.35 193.23 C-92.48 193.22 -94.61 193.21 -96.74 193.2 C-98.18 193.19 -99.62 193.19 -101.06 193.18 C-104.6 193.17 -108.14 193.15 -111.68 193.13 C-111.68 193.79 -111.68 194.45 -111.68 195.13 C-112.93 195.16 -114.18 195.18 -115.47 195.21 C-120.11 195.3 -124.76 195.4 -129.4 195.51 C-131.41 195.55 -133.42 195.59 -135.43 195.63 C-138.32 195.69 -141.21 195.75 -144.1 195.82 C-144.55 195.83 -144.55 195.83 -146.82 195.87 C-147.66 195.89 -148.5 195.91 -149.37 195.93 C-150.1 195.94 -150.84 195.96 -151.6 195.98 C-153.72 196.14 -155.63 196.56 -157.68 197.13 C-157.52 197.75 -157.37 198.37 -157.22 199.01 C-156.53 201.86 -155.85 204.72 -155.18 207.57 C-154.94 208.55 -154.7 209.52 -154.45 210.52 C-151.08 224.94 -151.08 224.94 -153.68 230.13 C-154.67 230.13 -155.66 230.13 -156.68 230.13 C-157.01 228.24 -157.35 226.34 -157.68 224.45 C-157.86 223.39 -158.05 222.34 -158.24 221.25 C-158.63 218.49 -158.76 215.92 -158.68 213.13 C-159.34 213.13 -160 213.13 -160.68 213.13 C-160.68 213.79 -160.68 214.45 -160.68 215.13 C-161.34 215.13 -162 215.13 -162.68 215.13 C-162.68 215.79 -162.68 216.45 -162.68 217.13 C-164.66 217.13 -166.64 217.13 -168.68 217.13 C-168.68 219.11 -168.68 221.09 -168.68 223.13 C-170 223.13 -171.32 223.13 -172.68 223.13 C-172.68 222.47 -172.68 221.81 -172.68 221.13 C-175.33 220.06 -177.96 219.04 -180.68 218.13 C-180.68 220.44 -180.68 222.75 -180.68 225.13 C-183.17 226.38 -184.09 225.91 -186.68 225.13 C-186.68 224.47 -186.68 223.81 -186.68 223.13 C-187.34 223.13 -188 223.13 -188.68 223.13 C-188.68 222.47 -188.68 221.81 -188.68 221.13 C-189.34 221.13 -190 221.13 -190.68 221.13 C-190.68 220.47 -190.68 219.81 -190.68 219.13 C-191.34 219.13 -192 219.13 -192.68 219.13 C-192.68 219.79 -192.68 220.45 -192.68 221.13 C-193.34 221.13 -194 221.13 -194.68 221.13 C-194.71 221.58 -194.71 221.58 -194.86 223.82 C-195.69 229.88 -198.38 235.51 -200.68 241.13 C-201.67 241.13 -202.66 241.13 -203.68 241.13 C-203.9 237.28 -203.28 234.64 -201.68 231.13 C-202.67 231.13 -203.66 231.13 -204.68 231.13 C-206.03 228.43 -205.74 226.12 -205.68 223.13 C-206.05 223.46 -206.05 223.46 -207.93 225.13 C-210.68 227.13 -210.68 227.13 -214.68 227.13 C-215.34 216.34 -213.45 207.72 -206.68 199.13 C-206.02 199.13 -205.36 199.13 -204.68 199.13 C-204.68 198.47 -204.68 197.81 -204.68 197.13 C-202.7 197.13 -200.72 197.13 -198.68 197.13 C-198.68 196.47 -198.68 195.81 -198.68 195.13 C-198.02 195.13 -197.36 195.13 -196.68 195.13 C-196.51 194.14 -196.51 194.14 -195.68 189.13 C-195.02 189.13 -194.36 189.13 -193.68 189.13 C-193.35 187.81 -193.02 186.49 -192.68 185.13 C-192.02 185.13 -191.36 185.13 -190.68 185.13 C-190.68 184.47 -190.68 183.81 -190.68 183.13 C-190.02 183.13 -189.36 183.13 -188.68 183.13 C-188.68 182.47 -188.68 181.81 -188.68 181.13 C-188.02 181.13 -187.36 181.13 -186.68 181.13 C-186.37 180.52 -186.06 179.9 -185.74 179.26 C-185.05 177.88 -184.36 176.51 -183.68 175.13 C-183.02 175.13 -182.36 175.13 -181.68 175.13 C-181.68 174.47 -181.68 173.81 -181.68 173.13 C-178.06 172.39 -174.64 172.08 -170.95 172.1 C-170.55 172.11 -170.55 172.11 -168.52 172.12 C-167.91 172.12 -167.3 172.13 -166.68 172.13 C-166.76 171.11 -166.85 170.08 -166.93 169.03 C-167.26 165.09 -167.58 161.15 -167.9 157.22 C-168.04 155.54 -168.18 153.86 -168.32 152.18 C-170.2 129.66 -170.88 107.17 -170.86 84.57 C-170.86 84.01 -170.86 84.01 -170.86 81.16 C-170.82 21.53 -170.82 21.53 -164.61 13.45 C-160.57 11.64 -157.03 11.79 -152.68 12.13 C-152.68 11.47 -152.68 10.81 -152.68 10.13 C-148.51 8.97 -144.49 9.01 -140.19 9.04 C-139.38 9.04 -138.56 9.04 -137.72 9.04 C-135.12 9.05 -132.52 9.06 -129.93 9.07 C-128.16 9.08 -126.4 9.08 -124.63 9.09 C-120.31 9.1 -115.99 9.11 -111.68 9.13 C-111.35 8.14 -111.02 7.15 -110.68 6.13 C-107.05 6.13 -103.42 6.13 -99.68 6.13 C-99.68 5.47 -99.68 4.81 -99.68 4.13 C-89.12 3.8 -78.56 3.47 -67.68 3.13 C-67.68 2.47 -67.68 1.81 -67.68 1.13 C-45.11 0.34 -22.58 -0.02 0 0 Z " fill="#4D3A34" transform="translate(243.67523431777954,1.8656744956970215)"/>
<path d="M0 0 C13.2 0 26.4 0 40 0 C40.81 25.64 41.39 51.17 40.56 76.81 C40.54 77.43 40.54 77.43 40.44 80.57 C40.42 81.15 40.42 81.15 40.32 84.08 C40.3 84.59 40.3 84.59 40.21 87.18 C40.01 89.87 39.53 92.36 39 95 C37.44 111.37 37.39 127.92 36.88 144.34 C36.75 148.2 36.63 152.05 36.5 155.9 C36.46 157.07 36.43 158.23 36.39 159.43 C36.36 160.54 36.32 161.65 36.28 162.79 C36.25 163.75 36.22 164.71 36.19 165.7 C35.93 170.15 35.44 174.57 35 179 C81.86 179 128.72 179 177 179 C177 190.03 175.34 200.14 173.43 210.93 C173.36 211.32 173.36 211.32 173.01 213.3 C172.67 215.2 172.34 217.1 172 219 C164.76 219.03 157.51 219.04 150.27 219.05 C147.8 219.06 145.33 219.07 142.86 219.08 C139.33 219.09 135.79 219.09 132.25 219.1 C131.14 219.1 130.03 219.11 128.89 219.11 C128.38 219.11 128.38 219.11 125.8 219.11 C125.34 219.11 125.34 219.11 123.06 219.12 C121 219 121 219 120 218 C92.61 217.67 65.22 217.34 37 217 C36.67 307.42 36.34 397.84 36 491 C35.34 491 34.68 491 34 491 C34 491.66 34 492.32 34 493 C33.01 493 32.02 493 31 493 C30.34 494.32 29.68 495.64 29 497 C27.68 497 26.36 497 25 497 C25 497.66 25 498.32 25 499 C23.68 499 22.36 499 21 499 C21 499.66 21 500.32 21 501 C20.01 501 19.02 501 18 501 C18 501.99 18 502.98 18 504 C11.12 504.57 6.97 503.48 1 500 C1 499.01 1 498.02 1 497 C0.01 497 -0.98 497 -2 497 C-3.68 478.03 -4.26 459.1 -4.56 440.06 C-4.57 439.48 -4.57 439.48 -4.62 436.51 C-4.69 431.88 -4.77 427.24 -4.84 422.61 C-4.98 413.79 -5.17 404.98 -5.44 396.17 C-5.5 394.24 -5.55 392.3 -5.61 390.37 C-5.64 389.25 -5.68 388.13 -5.72 386.98 C-5.75 386.03 -5.78 385.08 -5.81 384.1 C-6 382 -6 382 -7 381 C-7.13 378.49 -7.19 376 -7.21 373.49 C-7.22 372.7 -7.23 371.91 -7.24 371.1 C-7.27 368.45 -7.29 365.81 -7.32 363.16 C-7.34 361.3 -7.36 359.43 -7.38 357.56 C-7.42 353.6 -7.46 349.65 -7.5 345.69 C-7.55 340.76 -7.6 335.83 -7.66 330.9 C-7.88 311.4 -8.05 291.9 -8.08 272.4 C-8.09 270.59 -8.09 268.78 -8.1 266.97 C-8.16 251.9 -7.46 237 -6 222 C-7.32 222 -8.64 222 -10 222 C-10 221.34 -10 220.68 -10 220 C-10.66 220 -11.32 220 -12 220 C-12 220.66 -12 221.32 -12 222 C-13.01 222.03 -14.02 222.05 -15.07 222.08 C-18.9 222.17 -22.73 222.27 -26.56 222.37 C-28.2 222.42 -29.84 222.46 -31.49 222.5 C-40.82 222.73 -50.11 223.09 -59.42 223.76 C-65.5 224.17 -71.59 224.37 -77.69 224.56 C-78.35 224.58 -79.01 224.6 -79.69 224.63 C-96.79 225.16 -113.89 225.1 -131 225 C-132.42 221.67 -133.4 218.55 -134.04 214.99 C-134.2 214.07 -134.37 213.14 -134.55 212.19 C-134.72 211.24 -134.89 210.29 -135.06 209.31 C-135.4 207.41 -135.75 205.51 -136.1 203.61 C-136.25 202.78 -136.4 201.94 -136.55 201.08 C-137 199 -137 199 -138 197 C-138.04 195 -138.04 193 -138 191 C-137.01 191 -136.02 191 -135 191 C-134.83 190.67 -134.83 190.67 -134 189 C-120.14 189 -106.28 189 -92 189 C-92 188.34 -92 187.68 -92 187 C-91.1 186.97 -90.19 186.95 -89.26 186.92 C-85.92 186.83 -82.58 186.73 -79.24 186.63 C-77.79 186.58 -76.34 186.54 -74.89 186.5 C-72.82 186.45 -70.74 186.38 -68.66 186.32 C-67.41 186.28 -66.16 186.24 -64.87 186.21 C-62 186 -62 186 -61 185 C-58.26 184.91 -55.55 184.88 -52.81 184.9 C-51.99 184.9 -51.17 184.91 -50.32 184.91 C-47.7 184.91 -45.07 184.92 -42.44 184.94 C-40.66 184.94 -38.88 184.95 -37.1 184.95 C-32.74 184.96 -28.37 184.98 -24 185 C-24 184.34 -24 183.68 -24 183 C-17.4 183 -10.8 183 -4 183 C-4.16 181.55 -4.33 180.11 -4.49 178.61 C-5.01 173.45 -5.13 168.36 -5.09 163.17 C-5.08 162.23 -5.08 161.29 -5.07 160.32 C-5.06 157.22 -5.03 154.11 -5 151 C-4.99 149.93 -4.98 148.85 -4.97 147.75 C-4.88 139.25 -4.76 130.75 -4.62 122.25 C-4.61 121.58 -4.6 120.91 -4.59 120.23 C-4.23 97.39 -3.76 74.56 -3.19 51.73 C-3.1 48.47 -3.02 45.21 -2.95 41.95 C-2.86 38.09 -2.76 34.23 -2.65 30.37 C-2.62 28.96 -2.58 27.55 -2.55 26.13 C-2.51 24.17 -2.45 22.21 -2.39 20.25 C-2.37 19.16 -2.34 18.07 -2.31 16.94 C-1.86 11.26 -0.87 5.63 0 0 Z " fill="#F3F2F5" transform="translate(224,8)"/>
<path d="M0 0 C0.33 0 0.66 0 1 0 C1.23 1.15 1.45 2.31 1.69 3.5 C2.7 7.65 4.51 10.69 6.98 14.14 C8 16 8 16 8 20 C8.66 20 9.32 20 10 20 C11 21 12 22 13 23 C13.99 23.33 14.98 23.66 16 24 C16 24.66 16 25.32 16 26 C16.66 26 17.32 26 18 26 C18 26.66 18 27.32 18 28 C18.7 28.12 19.4 28.25 20.12 28.38 C23 29 23 29 25.62 30 C29.75 31.22 33.6 31.45 37.88 31.62 C38.66 31.66 39.44 31.7 40.25 31.74 C42.17 31.84 44.08 31.92 46 32 C46 31.34 46 30.68 46 30 C46.6 29.88 47.21 29.76 47.83 29.63 C48.63 29.47 49.43 29.3 50.25 29.12 C51.04 28.96 51.83 28.8 52.64 28.63 C54.97 28.01 56.89 27.15 59 26 C59 25.34 59 24.68 59 24 C60.32 24 61.64 24 63 24 C63 23.34 63 22.68 63 22 C65.31 22 67.62 22 70 22 C70 22.66 70 23.32 70 24 C71.65 24 73.3 24 75 24 C75 24.66 75 25.32 75 26 C76.32 26 77.64 26 79 26 C79 26.66 79 27.32 79 28 C79.99 28 80.98 28 82 28 C82 28.66 82 29.32 82 30 C82.7 30.25 83.4 30.5 84.12 30.75 C87.43 32.19 90.17 33.76 93 36 C93 37.32 93 38.64 93 40 C92.34 40 91.68 40 91 40 C90.88 40.31 90.88 40.31 90.25 41.88 C89 44 89 44 85 46 C85 49.96 85 53.92 85 58 C85.66 58 86.32 58 87 58 C87.05 58.83 87.1 59.66 87.15 60.52 C87.22 61.61 87.3 62.69 87.38 63.81 C87.41 64.35 87.41 64.35 87.59 67.08 C88 70 88 70 90 73 C92.84 73.42 95.6 73.44 98.47 73.5 C101 74 101 74 102.32 75.79 C103.16 78.51 103.36 81.23 103.66 84.06 C104.14 86.78 105.55 88.67 107 91 C107.39 92.41 107.74 93.82 108.06 95.25 C108.37 96.49 108.68 97.73 109 99 C109.66 99.33 110.32 99.66 111 100 C111.41 102.29 111.41 102.29 111.62 105.06 C111.66 105.52 111.66 105.52 111.85 107.85 C111.88 108.2 111.88 108.2 112 110 C112.66 110 113.32 110 114 110 C115.37 112.74 115.13 114.97 115 118 C114.67 118.66 114.34 119.32 114 120 C113.34 120 112.68 120 112 120 C112 120.66 112 121.32 112 122 C110.65 122.34 109.29 122.67 107.94 123 C107.18 123.19 106.43 123.37 105.65 123.56 C103 124 103 124 96 124 C96.16 126.31 96.16 126.31 97 138 C98.32 138 99.64 138 101 138 C101 136.68 101 135.36 101 134 C101.66 134 102.32 134 103 134 C103 133.34 103 132.68 103 132 C104.65 131.67 106.3 131.34 108 131 C107.67 131.99 107.34 132.98 107 134 C106.34 134 105.68 134 105 134 C105 134.66 105 135.32 105 136 C104.34 136 103.68 136 103 136 C102.71 136.87 102.42 137.73 102.12 138.62 C101.08 141.75 100.04 144.87 99 148 C99.72 148.29 100.44 148.58 101.19 148.88 C103.79 149.92 106.4 150.96 109 152 C109.11 151.31 109.22 150.63 109.33 149.92 C109.41 149.47 109.41 149.47 109.81 147.19 C109.89 146.74 109.89 146.74 110.27 144.48 C111.05 141.82 111.89 140.74 114 139 C114.44 152.11 109.47 164.32 104 176 C103.34 176 102.68 176 102 176 C101.67 177.32 101.34 178.64 101 180 C100.34 180 99.68 180 99 180 C99 180.66 99 181.32 99 182 C98.34 182 97.68 182 97 182 C97 182.66 97 183.32 97 184 C96.01 184 95.02 184 94 184 C94 184.66 94 185.32 94 186 C93.34 186 92.68 186 92 186 C91.75 186.87 91.5 187.73 91.25 188.62 C89.92 192.23 88.37 194.98 86 198 C85.01 198 84.02 198 83 198 C83 198.66 83 199.32 83 200 C80.35 201.46 79.11 202 76 202 C76 202.66 76 203.32 76 204 C74.68 204 73.36 204 72 204 C71.67 205.32 71.34 206.64 71 208 C70.34 208 69.68 208 69 208 C67.19 212.46 66.88 215.31 68 220 C75.03 222.92 81.26 223.4 88.82 223.29 C89.91 223.29 91.01 223.28 92.14 223.28 C95.61 223.26 99.09 223.23 102.56 223.19 C104.93 223.17 107.3 223.16 109.67 223.15 C115.44 223.11 121.22 223.06 127 223 C127 222.34 127 221.68 127 221 C128.65 220.67 130.3 220.34 132 220 C132 219.67 132 219.34 132 219 C133.98 219 135.96 219 138 219 C138 218.34 138 217.68 138 217 C140.31 216.67 142.62 216.34 145 216 C145 215.34 145 214.68 145 214 C145.66 214 146.32 214 147 214 C147 213.34 147 212.68 147 212 C148.32 212 149.64 212 151 212 C151 211.34 151 210.68 151 210 C151.99 210 152.98 210 154 210 C154 209.34 154 208.68 154 208 C169.93 207.26 169.93 207.26 176 212 C176 212.66 176 213.32 176 214 C178.64 214 181.28 214 184 214 C184 214.66 184 215.32 184 216 C185.99 215.93 187.97 215.87 189.96 215.8 C192 216 192 216 195 218 C195 218.66 195 219.32 195 220 C195.66 220 196.32 220 197 220 C197 220.66 197 221.32 197 222 C197.66 222 198.32 222 199 222 C199 222.66 199 223.32 199 224 C199.76 224.29 200.53 224.58 201.31 224.88 C204 226 204 226 207 228 C207 228.66 207 229.32 207 230 C207.99 230 208.98 230 210 230 C210 230.66 210 231.32 210 232 C210.66 232 211.32 232 212 232 C212 232.99 212 233.98 212 235 C212.44 235.11 212.44 235.11 214.69 235.69 C218.48 237.19 220.29 238.99 223 242 C223.99 242.99 224.98 243.98 226 245 C151.42 245 76.84 245 0 245 C0 164.15 0 83.3 0 0 Z " fill="#F4C16E" transform="translate(0,271)"/>
<path d="M0 0 C0.66 0 1.32 0 2 0 C3.37 4.88 4.27 9.66 4.94 14.69 C5.58 19.54 6.48 24.19 7.69 28.94 C8.86 33.75 9.23 37.2 8 42 C6.35 42 4.7 42 3 42 C3 42.66 3 43.32 3 44 C2.34 44 1.68 44 1 44 C0.75 51.34 0.75 51.34 2.06 54.75 C3.53 59.84 2.62 64.79 2 70 C1.01 70 0.02 70 -1 70 C-1 70.66 -1 71.32 -1 72 C-1.66 72 -2.32 72 -3 72 C-3 72.66 -3 73.32 -3 74 C-3.99 74 -4.98 74 -6 74 C-6 74.66 -6 75.32 -6 76 C-8.31 76 -10.62 76 -13 76 C-13.33 75.01 -13.66 74.02 -14 73 C-13.34 73 -12.68 73 -12 73 C-12 72.01 -12 71.02 -12 70 C-11.34 70 -10.68 70 -10 70 C-9.84 69.34 -9.84 69.34 -9 66 C-8.01 66 -7.02 66 -6 66 C-5.67 63.69 -5.34 61.38 -5 59 C-5.62 59.5 -6.24 59.99 -6.88 60.5 C-9 62 -9 62 -11 62 C-11 62.66 -11 63.32 -11 64 C-11.66 64 -12.32 64 -13 64 C-13.06 64.38 -13.06 64.38 -13.38 66.31 C-14 69 -14 69 -16 72 C-17.32 72 -18.64 72 -20 72 C-20.16 72.5 -20.16 72.5 -21 75 C-23.06 75.69 -23.06 75.69 -25 76 C-25 76.66 -25 77.32 -25 78 C-25.66 78 -26.32 78 -27 78 C-27 78.66 -27 79.32 -27 80 C-28.65 80 -30.3 80 -32 80 C-32 80.66 -32 81.32 -32 82 C-34.31 82 -36.62 82 -39 82 C-39.33 82.66 -39.66 83.32 -40 84 C-44.95 84 -49.9 84 -55 84 C-55 83.34 -55 82.68 -55 82 C-56.32 82 -57.64 82 -59 82 C-59 81.34 -59 80.68 -59 80 C-60.65 80 -62.3 80 -64 80 C-64 79.34 -64 78.68 -64 78 C-64.29 77.97 -64.29 77.97 -65.75 77.81 C-71.02 75.91 -73.69 69.63 -76.02 64.82 C-78.18 58.62 -77.8 52.49 -75.81 46.31 C-73.6 43.49 -72.45 43.44 -69 43 C-68.34 42.01 -67.68 41.02 -67 40 C-63.96 38.08 -62.78 38 -59 38 C-59 37.34 -59 36.68 -59 36 C-58.17 35.84 -57.34 35.68 -56.48 35.52 C-55.94 35.4 -55.94 35.4 -53.19 34.81 C-52.11 34.59 -51.03 34.37 -49.92 34.14 C-46.33 32.74 -45.85 31.25 -44 28 C-42.68 28 -41.36 28 -40 28 C-39.89 27.16 -39.78 26.32 -39.66 25.46 C-38.94 21.66 -37.77 18.25 -36.44 14.62 C-36.32 14.3 -36.32 14.3 -35.73 12.68 C-35.16 11.12 -34.58 9.56 -34 8 C-33.34 8 -32.68 8 -32 8 C-32 7.34 -32 6.68 -32 6 C-31.34 6 -30.68 6 -30 6 C-30 6.66 -30 7.32 -30 8 C-29.34 8 -28.68 8 -28 8 C-28 8.66 -28 9.32 -28 10 C-27.34 10 -26.68 10 -26 10 C-26 10.66 -26 11.32 -26 12 C-24.35 12 -22.7 12 -21 12 C-20.67 9.69 -20.34 7.38 -20 5 C-17.07 5.63 -14.64 6.59 -12 8 C-12 8.66 -12 9.32 -12 10 C-10.68 10 -9.36 10 -8 10 C-8 8.02 -8 6.04 -8 4 C-6.02 4 -4.04 4 -2 4 C-2 3.34 -2 2.68 -2 2 C-1.34 2 -0.68 2 0 2 C0 1.34 0 0.68 0 0 Z " fill="#A68D77" transform="translate(83,215)"/>
<path d="M0 0 C9.9 0 19.8 0 30 0 C30 0.33 30 0.66 30 1 C25.05 1 20.1 1 15 1 C15 1.66 15 2.32 15 3 C12.69 3 10.38 3 8 3 C7.67 3.99 7.34 4.98 7 6 C6.34 5.67 5.68 5.34 5 5 C3 5.33 1 5.66 -1 6 C-1.16 5.84 -1.16 5.84 -2 5 C-2.66 6.65 -3.32 8.3 -4 10 C-3.34 10 -2.68 10 -2 10 C-2 10.66 -2 11.32 -2 12 C-2.99 12 -3.98 12 -5 12 C-5 12.66 -5 13.32 -5 14 C-4.01 14.33 -3.02 14.66 -2 15 C1.14 20.07 2.45 25.01 1.56 30.94 C1.47 31.28 1.47 31.28 1 33 C1.33 33.16 1.33 33.16 3 34 C3.33 32.68 3.66 31.36 4 30 C4.16 30.5 4.16 30.5 5 33 C5.66 32.01 6.32 31.02 7 30 C7.16 30.5 7.16 30.5 8 33 C19.88 33.33 31.76 33.66 44 34 C44 33.34 44 32.68 44 32 C57.86 32 71.72 32 86 32 C86 32.66 86 33.32 86 34 C86.66 34 87.32 34 88 34 C88.03 36.71 88.05 39.42 88.06 42.12 C88.07 42.89 88.08 43.65 88.09 44.43 C88.09 45.18 88.09 45.93 88.1 46.7 C88.1 47.38 88.11 48.06 88.11 48.76 C88 51 88 51 87.5 53.61 C86.91 57.59 86.89 61.47 86.92 65.48 C86.92 66.31 86.93 67.15 86.93 68.01 C86.93 69.82 86.94 71.63 86.95 73.44 C86.98 78.4 86.99 83.36 87 88.31 C87 89.35 87 90.39 87 91.46 C87.01 102.86 86.91 114.25 86.78 125.64 C86.77 126.65 86.76 127.67 86.75 128.71 C86.68 134.85 86.61 140.99 86.54 147.13 C86.47 152.45 86.42 157.77 86.36 163.09 C86.24 173.39 86.12 183.7 86 194 C85.67 194 85.34 194 85 194 C84.87 183.27 84.74 172.54 84.61 161.81 C84.55 156.82 84.49 151.83 84.43 146.84 C84.17 126.36 83.95 105.88 83.91 85.4 C83.91 83.59 83.9 81.77 83.9 79.96 C83.84 64.9 84.54 50 86 35 C84.68 35 83.36 35 82 35 C82 34.34 82 33.68 82 33 C81.34 33 80.68 33 80 33 C80 33.66 80 34.32 80 35 C78.99 35.03 77.98 35.05 76.93 35.08 C73.1 35.17 69.27 35.27 65.44 35.37 C63.8 35.42 62.16 35.46 60.51 35.5 C51.18 35.73 41.89 36.09 32.58 36.76 C26.5 37.17 20.41 37.37 14.31 37.56 C13.65 37.58 12.99 37.6 12.31 37.63 C-4.79 38.16 -21.89 38.1 -39 38 C-40.42 34.67 -41.4 31.55 -42.04 27.99 C-42.2 27.07 -42.37 26.14 -42.55 25.19 C-42.72 24.24 -42.89 23.29 -43.06 22.31 C-43.4 20.41 -43.75 18.51 -44.1 16.61 C-44.25 15.78 -44.4 14.94 -44.55 14.08 C-45 12 -45 12 -46 10 C-46.04 8 -46.04 6 -46 4 C-45.01 4 -44.02 4 -43 4 C-42.67 3.34 -42.34 2.68 -42 2 C-28.14 2 -14.28 2 0 2 C0 1.34 0 0.68 0 0 Z " fill="#A0907F" transform="translate(132,195)"/>
<path d="M0 0 C0.66 0 1.32 0 2 0 C3.37 4.88 4.27 9.66 4.94 14.69 C5.74 20.63 6.94 26.36 8.41 32.16 C8.97 34.87 9.11 37.25 9 40 C8.71 39.91 8.71 39.91 7.25 39.44 C4.79 38.96 3.36 39.24 1 40 C0.84 39.34 0.84 39.34 0 36 C0.33 36.66 0.66 37.32 1 38 C1.66 38 2.32 38 3 38 C3.33 36.68 3.66 35.36 4 34 C1.36 34.33 -1.28 34.66 -4 35 C-4 34.34 -4 33.68 -4 33 C-8 33 -8 33 -10 34 C-12 34.04 -14 34.04 -16 34 C-16 37.3 -16 40.6 -16 44 C-15.01 43.67 -14.02 43.34 -13 43 C-12.84 43.66 -12.84 43.66 -12 47 C-13.65 47.99 -15.3 48.98 -17 50 C-17 49.34 -17 48.68 -17 48 C-17.66 48 -18.32 48 -19 48 C-19.16 48.33 -19.16 48.33 -20 50 C-20.99 50.33 -21.98 50.66 -23 51 C-23.16 49.85 -23.16 49.85 -24 44 C-24.66 44 -25.32 44 -26 44 C-26.33 45.32 -26.66 46.64 -27 48 C-27.33 47.34 -27.66 46.68 -28 46 C-28.66 46.66 -29.32 47.32 -30 48 C-31.32 45.03 -32.64 42.06 -34 39 C-34.76 39.16 -35.53 39.33 -36.31 39.5 C-39 40 -39 40 -42 40 C-42.33 41.32 -42.66 42.64 -43 44 C-43.99 44 -44.98 44 -46 44 C-46.33 43.01 -46.66 42.02 -47 41 C-48.38 39.31 -48.38 39.31 -50 38 C-50.99 38 -51.98 38 -53 38 C-53.66 38 -54.32 38 -55 38 C-56 40 -56 40 -56 44 C-56.99 44 -57.98 44 -59 44 C-58.67 45.32 -58.34 46.64 -58 48 C-57.34 48 -56.68 48 -56 48 C-56.33 48.99 -56.66 49.98 -57 51 C-57.33 51 -57.66 51 -58 51 C-58.33 51.99 -58.66 52.98 -59 54 C-59.99 54 -60.98 54 -62 54 C-62 52.02 -62 50.04 -62 48 C-62.99 48 -63.98 48 -65 48 C-64.34 49.98 -63.68 51.96 -63 54 C-63.66 54 -64.32 54 -65 54 C-65.33 55.32 -65.66 56.64 -66 58 C-66.16 57.5 -66.16 57.5 -67 55 C-67.66 55.66 -68.32 56.32 -69 57 C-69.33 56.34 -69.66 55.68 -70 55 C-70.66 55.66 -71.32 56.32 -72 57 C-72.5 57.17 -72.5 57.17 -75 58 C-74.01 58 -73.02 58 -72 58 C-71.67 59.65 -71.34 61.3 -71 63 C-70.34 63 -69.68 63 -69 63 C-68.67 62.01 -68.34 61.02 -68 60 C-66.9 63.29 -67.2 64.71 -68 68 C-68.66 68 -69.32 68 -70 68 C-70.16 68.33 -70.16 68.33 -71 70 C-69.35 70.33 -67.7 70.66 -66 71 C-65.67 72.15 -65.67 72.15 -64 78 C-66.82 77.7 -67.91 77.09 -69.94 75.06 C-75.52 66.77 -78.33 60.17 -77 50 C-75.81 46.31 -75.81 46.31 -74 44 C-71.44 43.31 -71.44 43.31 -69 43 C-68.34 42.01 -67.68 41.02 -67 40 C-63.96 38.08 -62.78 38 -59 38 C-59 37.34 -59 36.68 -59 36 C-58.17 35.84 -57.34 35.68 -56.48 35.52 C-55.94 35.4 -55.94 35.4 -53.19 34.81 C-52.11 34.59 -51.03 34.37 -49.92 34.14 C-46.33 32.74 -45.85 31.25 -44 28 C-42.68 28 -41.36 28 -40 28 C-39.89 27.16 -39.78 26.32 -39.66 25.46 C-38.94 21.66 -37.77 18.25 -36.44 14.62 C-36.32 14.3 -36.32 14.3 -35.73 12.68 C-35.16 11.12 -34.58 9.56 -34 8 C-33.34 8 -32.68 8 -32 8 C-32 7.34 -32 6.68 -32 6 C-31.34 6 -30.68 6 -30 6 C-30 6.66 -30 7.32 -30 8 C-29.34 8 -28.68 8 -28 8 C-28 8.66 -28 9.32 -28 10 C-27.34 10 -26.68 10 -26 10 C-26 10.66 -26 11.32 -26 12 C-24.35 12 -22.7 12 -21 12 C-20.67 9.69 -20.34 7.38 -20 5 C-17.07 5.63 -14.64 6.59 -12 8 C-12 8.66 -12 9.32 -12 10 C-10.68 10 -9.36 10 -8 10 C-8 8.02 -8 6.04 -8 4 C-6.02 4 -4.04 4 -2 4 C-2 3.34 -2 2.68 -2 2 C-1.34 2 -0.68 2 0 2 C0 1.34 0 0.68 0 0 Z M-73 62 C-72.34 63.32 -71.68 64.64 -71 66 C-71.33 64.68 -71.66 63.36 -72 62 C-72.33 62 -72.66 62 -73 62 Z " fill="#9B8671" transform="translate(83,215)"/>
<path d="M0 0 C1.52 3.9 0.45 6.4 -1.06 10.19 C-1.47 11.25 -1.87 12.32 -2.29 13.42 C-4 16 -4 16 -6.94 16.83 C-7.95 16.88 -8.96 16.94 -10 17 C-11.28 17.19 -12.56 17.37 -13.88 17.56 C-14.91 17.71 -15.94 17.85 -17 18 C-17 18.66 -17 19.32 -17 20 C-17.55 20.18 -18.11 20.36 -18.68 20.55 C-19.4 20.8 -20.13 21.05 -20.88 21.31 C-21.59 21.56 -22.31 21.8 -23.05 22.05 C-25 23 -25 23 -27 26 C-29.63 26.19 -29.63 26.19 -32 26 C-34.58 31.81 -34.9 37.77 -34 44 C-32.37 47.94 -30.28 51.41 -28 55 C-27.65 55.75 -27.3 56.5 -26.94 57.27 C-26 59 -26 59 -23.88 59.75 C-23.26 59.83 -22.64 59.92 -22 60 C-22 60.66 -22 61.32 -22 62 C-20.35 62 -18.7 62 -17 62 C-17 62.66 -17 63.32 -17 64 C-15.68 64 -14.36 64 -13 64 C-13 64.66 -13 65.32 -13 66 C-10.52 65.86 -8.04 65.71 -5.56 65.56 C-4.86 65.52 -4.15 65.48 -3.42 65.44 C1.89 65.11 1.89 65.11 3 64 C5.33 63.96 7.67 63.96 10 64 C10 63.34 10 62.68 10 62 C11.65 62 13.3 62 15 62 C15 61.34 15 60.68 15 60 C15.66 60 16.32 60 17 60 C17 59.34 17 58.68 17 58 C17.64 57.71 18.28 57.42 18.94 57.12 C21 56 21 56 22 54 C23.32 54 24.64 54 26 54 C27.08 51.35 28.09 48.72 29 46 C29.66 46 30.32 46 31 46 C31 45.34 31 44.68 31 44 C34.46 41 34.46 41 37 41 C36.67 43.31 36.34 45.62 36 48 C35.01 48 34.02 48 33 48 C32.67 49.32 32.34 50.64 32 52 C31.34 52 30.68 52 30 52 C29.67 53.98 29.34 55.96 29 58 C31.31 58 33.62 58 36 58 C36 57.34 36 56.68 36 56 C36.99 56 37.98 56 39 56 C39 55.34 39 54.68 39 54 C39.66 54 40.32 54 41 54 C41 53.34 41 52.68 41 52 C41.99 52 42.98 52 44 52 C43.94 50.78 43.88 49.57 43.81 48.31 C43.59 43.92 44.41 43.31 47 39 C51.95 39.33 56.9 39.66 62 40 C62.16 39.67 62.16 39.67 63 38 C63.66 38 64.32 38 65 38 C65 38.66 65 39.32 65 40 C65.66 40 66.32 40 67 40 C67.16 39.67 67.16 39.67 68 38 C68.66 38.66 69.32 39.32 70 40 C69.98 42.16 69.98 42.16 69.62 44.62 C69.51 45.44 69.4 46.26 69.29 47.1 C69.19 47.73 69.1 48.35 69 49 C68.01 49 67.02 49 66 49 C66 49.66 66 50.32 66 51 C65.01 51.05 64.03 51.1 63.01 51.15 C61.73 51.22 60.45 51.3 59.12 51.38 C58.49 51.41 58.49 51.41 55.26 51.59 C52 52 52 52 50 54 C49.59 55.95 49.59 55.95 49.38 58.12 C49.31 58.76 49.31 58.76 49 62 C49.99 62 50.98 62 52 62 C52.16 62.66 52.16 62.66 53 66 C53.66 66 54.32 66 55 66 C55 66.66 55 67.32 55 68 C56.98 68 58.96 68 61 68 C62.8 70.76 63.01 71.89 62.62 75.25 C62.42 76.16 62.21 77.06 62 78 C61.34 77.84 61.34 77.84 58 77 C57.67 75.35 57.34 73.7 57 72 C56.35 72.05 55.7 72.09 55.02 72.14 C48.98 72.39 45.57 72.09 41 68 C41 67.34 41 66.68 41 66 C40.01 66 39.02 66 38 66 C38 65.34 38 64.68 38 64 C36.68 64 35.36 64 34 64 C34 63.34 34 62.68 34 62 C32.35 62 30.7 62 29 62 C29 61.34 29 60.68 29 60 C26.69 60 24.38 60 22 60 C22 60.66 22 61.32 22 62 C20.68 62 19.36 62 18 62 C18 62.66 18 63.32 18 64 C13.39 66.95 10.63 68.55 5 68 C5 68.66 5 69.32 5 70 C2.31 70.08 -0.37 70.14 -3.06 70.19 C-3.81 70.21 -4.57 70.24 -5.34 70.26 C-10.7 70.33 -14.2 69.37 -19 67 C-20.32 66.63 -21.65 66.27 -23 66 C-23 65.34 -23 64.68 -23 64 C-23.66 64 -24.32 64 -25 64 C-25 63.34 -25 62.68 -25 62 C-26.65 61.67 -28.3 61.34 -30 61 C-30.16 60.5 -30.16 60.5 -31 58 C-31.66 58 -32.32 58 -33 58 C-33.23 57.36 -33.45 56.72 -33.69 56.06 C-35 53 -35 53 -36.21 51.09 C-40.09 44.92 -41.37 39.29 -41 32 C-39.75 28.5 -39.75 28.5 -38 26 C-37.53 25.22 -37.05 24.43 -36.56 23.62 C-36.05 23.09 -35.53 22.55 -35 22 C-33.68 22 -32.36 22 -31 22 C-31 21.34 -31 20.68 -31 20 C-30.34 20 -29.68 20 -29 20 C-29 19.34 -29 18.68 -29 18 C-27.35 18 -25.7 18 -24 18 C-24 17.34 -24 16.68 -24 16 C-22.35 16 -20.7 16 -19 16 C-19 15.34 -19 14.68 -19 14 C-15.63 12.5 -13.8 12 -10 12 C-10 11.34 -10 10.68 -10 10 C-9.34 10 -8.68 10 -8 10 C-8 9.34 -8 8.68 -8 8 C-7.34 8 -6.68 8 -6 8 C-6 7.34 -6 6.68 -6 6 C-5.69 5.88 -5.69 5.88 -4.12 5.25 C-1.65 3.79 -1.05 2.62 0 0 Z " fill="#60493B" transform="translate(41,233)"/>
<path d="M0 0 C99.66 0 199.32 0 302 0 C302 0.66 302 1.32 302 2 C305.3 2.33 308.6 2.66 312 3 C312 3.66 312 4.32 312 5 C304.06 6.09 296.36 5.95 288.38 5.56 C287.78 5.54 287.78 5.54 284.75 5.4 C281.84 5.28 278.92 5.14 276 5 C276 4.34 276 3.68 276 3 C212.31 3 148.62 3 83 3 C83 3.66 83 4.32 83 5 C79.14 5.91 75.57 6.12 71.61 6.1 C70.4 6.09 69.2 6.09 67.96 6.09 C66.72 6.08 65.47 6.07 64.19 6.06 C62.92 6.06 61.66 6.05 60.35 6.05 C57.24 6.04 54.12 6.02 51 6 C51 6.66 51 7.32 51 8 C50.22 8.05 49.44 8.1 48.63 8.15 C48.12 8.19 48.12 8.19 45.56 8.38 C44.55 8.44 43.54 8.51 42.5 8.59 C41.68 8.72 40.85 8.86 40 9 C39.67 9.66 39.34 10.32 39 11 C25.8 11.33 12.6 11.66 -1 12 C-0.67 8.04 -0.34 4.08 0 0 Z " fill="#EDB268" transform="translate(93,0)"/>
<path d="M0 0 C0 0.33 0 0.66 0 1 C-4.95 1 -9.9 1 -15 1 C-15 1.66 -15 2.32 -15 3 C-17.31 3 -19.62 3 -22 3 C-22.33 3.99 -22.66 4.98 -23 6 C-23.66 5.67 -24.32 5.34 -25 5 C-27 5.33 -29 5.66 -31 6 C-31.33 5.67 -31.66 5.34 -32 5 C-32.66 6.65 -33.32 8.3 -34 10 C-33.34 10 -32.68 10 -32 10 C-32 10.66 -32 11.32 -32 12 C-32.99 12 -33.98 12 -35 12 C-35 12.66 -35 13.32 -35 14 C-34.01 14.33 -33.02 14.66 -32 15 C-28.86 20.07 -27.55 25.01 -28.44 30.94 C-28.62 31.62 -28.81 32.3 -29 33 C-28.34 33.33 -27.68 33.66 -27 34 C-26.67 32.68 -26.34 31.36 -26 30 C-25.67 30.99 -25.34 31.98 -25 33 C-24.34 32.01 -23.68 31.02 -23 30 C-22.84 30.5 -22.84 30.5 -22 33 C-16.72 33.33 -11.44 33.66 -6 34 C-6 34.33 -6 34.66 -6 35 C-17.95 36.47 -29.99 36.09 -42 36 C-42.66 34.68 -43.32 33.36 -44 32 C-44.66 32 -45.32 32 -46 32 C-46.14 31.2 -46.29 30.39 -46.44 29.56 C-47 27 -47 27 -48 26 C-48.33 25.01 -48.66 24.02 -49 23 C-48.34 23 -47.68 23 -47 23 C-47 22.01 -47 21.02 -47 20 C-47.66 20 -48.32 20 -49 20 C-49.66 18.35 -50.32 16.7 -51 15 C-52.12 17.25 -52.12 17.25 -53 20 C-52.12 22.31 -52.12 22.31 -51 24 C-52.65 25.32 -54.3 26.64 -56 28 C-55.98 27.11 -55.96 26.23 -55.94 25.31 C-56 22 -56 22 -56.56 19.38 C-57.02 16.87 -56.8 15.39 -56 13 C-55.34 13 -54.68 13 -54 13 C-53.67 11.02 -53.34 9.04 -53 7 C-52.34 7.33 -51.68 7.66 -51 8 C-50.67 6.68 -50.34 5.36 -50 4 C-49.43 3.95 -48.86 3.9 -48.28 3.85 C-29.53 2.18 -29.53 2.18 -22.19 0.88 C-14.81 -0.37 -7.46 -0.17 0 0 Z " fill="#CEC5B9" transform="translate(162,195)"/>
<path d="M0 0 C2 2 2 2 2 6 C2.66 6 3.32 6 4 6 C3.67 7.32 3.34 8.64 3 10 C3.99 10.66 4.98 11.32 6 12 C5.67 13.98 5.34 15.96 5 18 C5.66 18 6.32 18 7 18 C7.33 17.34 7.66 16.68 8 16 C8.33 17.98 8.66 19.96 9 22 C9.66 22 10.32 22 11 22 C11.33 21.34 11.66 20.68 12 20 C12 20.66 12 21.32 12 22 C12.89 21.94 13.79 21.88 14.71 21.82 C31.49 20.7 48.18 19.63 65 20 C65 19.34 65 18.68 65 18 C78.86 18 92.72 18 107 18 C107 18.66 107 19.32 107 20 C107.66 20 108.32 20 109 20 C109.03 22.71 109.05 25.42 109.06 28.12 C109.07 28.89 109.08 29.65 109.09 30.43 C109.09 31.18 109.09 31.93 109.1 32.7 C109.1 33.38 109.11 34.06 109.11 34.76 C109 37 109 37 108.5 39.61 C107.91 43.59 107.89 47.47 107.92 51.48 C107.92 52.31 107.93 53.15 107.93 54.01 C107.93 55.82 107.94 57.63 107.95 59.44 C107.98 64.4 107.99 69.36 108 74.31 C108 75.35 108 76.39 108 77.46 C108.01 88.86 107.91 100.25 107.78 111.64 C107.77 112.65 107.76 113.67 107.75 114.71 C107.68 120.85 107.61 126.99 107.54 133.13 C107.47 138.45 107.42 143.77 107.36 149.09 C107.24 159.39 107.12 169.7 107 180 C106.67 180 106.34 180 106 180 C105.87 169.27 105.74 158.54 105.61 147.81 C105.55 142.82 105.49 137.83 105.43 132.84 C105.17 112.36 104.95 91.88 104.91 71.4 C104.91 69.59 104.9 67.77 104.9 65.96 C104.84 50.9 105.54 36 107 21 C105.68 21 104.36 21 103 21 C103 20.34 103 19.68 103 19 C102.34 19 101.68 19 101 19 C101 19.66 101 20.32 101 21 C99.99 21.03 98.98 21.05 97.93 21.08 C94.1 21.17 90.27 21.27 86.44 21.37 C84.8 21.42 83.16 21.46 81.51 21.5 C73.56 21.69 65.62 21.92 57.69 22.5 C47.82 23.21 37.95 23.36 28.06 23.56 C26.11 23.61 24.15 23.65 22.2 23.69 C17.46 23.8 12.73 23.9 8 24 C8 23.34 8 22.68 8 22 C6.68 22 5.36 22 4 22 C4 21.34 4 20.68 4 20 C3.34 20 2.68 20 2 20 C2 20.66 2 21.32 2 22 C0.68 22 -0.64 22 -2 22 C-2.33 21.34 -2.66 20.68 -3 20 C-3.33 20.99 -3.66 21.98 -4 23 C-4.66 20.69 -5.32 18.38 -6 16 C-6.66 16 -7.32 16 -8 16 C-7.34 17.98 -6.68 19.96 -6 22 C-7.65 21.67 -9.3 21.34 -11 21 C-11 20.01 -11 19.02 -11 18 C-10.34 18 -9.68 18 -9 18 C-9 17.34 -9 16.68 -9 16 C-9.66 16 -10.32 16 -11 16 C-11 14.68 -11 13.36 -11 12 C-8.69 12.33 -6.38 12.66 -4 13 C-3.01 11.35 -2.02 9.7 -1 8 C-1.66 8 -2.32 8 -3 8 C-2.25 2.25 -2.25 2.25 0 0 Z " fill="#B19B87" transform="translate(111,209)"/>
<path d="M0 0 C0.66 0 1.32 0 2 0 C4.18 7.26 4.6 14.45 5 22 C3.21 19.31 2.34 17.34 1.38 14.31 C1.24 13.91 1.24 13.91 0.59 11.86 C0.39 11.25 0.2 10.63 0 10 C0.66 9.67 1.32 9.34 2 9 C2 8.01 2 7.02 2 6 C1.34 6 0.68 6 0 6 C-0.33 6.66 -0.66 7.32 -1 8 C-1.33 8 -1.66 8 -2 8 C-2.33 10.31 -2.66 12.62 -3 15 C-3.66 15 -4.32 15 -5 15 C-4.67 15.99 -4.34 16.98 -4 18 C-4.69 19.71 -5.39 21.41 -6.16 23.08 C-7.43 25.98 -8.19 28.95 -9 32 C-11.38 32.12 -11.38 32.12 -14 32 C-16.14 29.86 -16.43 28.87 -17 26 C-17.66 26 -18.32 26 -19 26 C-19 30.29 -19 34.58 -19 39 C-20.09 38.84 -21.19 38.67 -22.31 38.5 C-26 38 -26 38 -29 38 C-28.77 35.75 -28.52 33.5 -28.25 31.25 C-28.18 30.62 -28.18 30.62 -27.83 27.45 C-26.91 23.63 -25.79 22.61 -23 20 C-23.25 16.25 -23.25 16.25 -24 13 C-24.99 13.33 -25.98 13.66 -27 14 C-27.33 13.67 -27.66 13.34 -28 13 C-28.66 13.66 -29.32 14.32 -30 15 C-30 14.01 -30 13.02 -30 12 C-31.32 12 -32.64 12 -34 12 C-34 10.68 -34 9.36 -34 8 C-33.34 8 -32.68 8 -32 8 C-32 7.34 -32 6.68 -32 6 C-31.34 6 -30.68 6 -30 6 C-30 6.66 -30 7.32 -30 8 C-29.34 8 -28.68 8 -28 8 C-28 8.66 -28 9.32 -28 10 C-27.34 10 -26.68 10 -26 10 C-26 10.66 -26 11.32 -26 12 C-24.35 12 -22.7 12 -21 12 C-20.67 9.69 -20.34 7.38 -20 5 C-17.07 5.63 -14.64 6.59 -12 8 C-12 8.66 -12 9.32 -12 10 C-10.68 10 -9.36 10 -8 10 C-8 8.02 -8 6.04 -8 4 C-6.02 4 -4.04 4 -2 4 C-2 3.34 -2 2.68 -2 2 C-1.34 2 -0.68 2 0 2 C0 1.34 0 0.68 0 0 Z " fill="#7F6F60" transform="translate(83,215)"/>
<path d="M0 0 C0.66 0 1.32 0 2 0 C2 0.66 2 1.32 2 2 C2.66 2 3.32 2 4 2 C4.33 1.34 4.66 0.68 5 0 C5.66 0.66 6.32 1.32 7 2 C6.98 4.16 6.98 4.16 6.62 6.62 C6.51 7.44 6.4 8.26 6.29 9.1 C6.24 9.41 6.24 9.41 6 11 C5.01 11 4.02 11 3 11 C3 11.66 3 12.32 3 13 C2.01 13.05 1.03 13.1 0.01 13.15 C-1.27 13.22 -2.55 13.3 -3.88 13.38 C-4.51 13.41 -4.51 13.41 -7.74 13.59 C-11 14 -11 14 -13 16 C-13.41 17.95 -13.41 17.95 -13.62 20.12 C-13.75 21.4 -13.87 22.68 -14 24 C-13.01 24 -12.02 24 -11 24 C-10.67 25.32 -10.34 26.64 -10 28 C-9.34 28 -8.68 28 -8 28 C-8 28.66 -8 29.32 -8 30 C-6.02 30 -4.04 30 -2 30 C-0.2 32.76 0.01 33.89 -0.38 37.25 C-0.48 37.7 -0.48 37.7 -1 40 C-2.32 39.67 -3.64 39.34 -5 39 C-5.16 38.18 -5.16 38.18 -6 34 C-6.65 34.05 -7.3 34.09 -7.98 34.14 C-14.02 34.39 -17.43 34.09 -22 30 C-22 29.34 -22 28.68 -22 28 C-22.99 28 -23.98 28 -25 28 C-25.27 27.4 -25.54 26.8 -25.81 26.19 C-26.98 24.03 -28.19 22.64 -30 21 C-28.68 21.33 -27.36 21.66 -26 22 C-26 21.01 -26 20.02 -26 19 C-25.4 18.73 -24.8 18.46 -24.19 18.19 C-20.43 16.15 -20.43 16.15 -19 14 C-19 12.04 -19 10.08 -19.19 8.13 C-19 6 -19 6 -16 1 C-11.05 1.33 -6.1 1.66 -1 2 C-0.67 1.34 -0.34 0.68 0 0 Z " fill="#6C594C" transform="translate(104,271)"/>
<path d="M0 0 C1.78 6.24 2.24 12.55 2 19 C-0.75 19.92 -2.36 20.11 -5.19 20.06 C-5.82 20.05 -5.82 20.05 -9 20 C-9.33 20.66 -9.66 21.32 -10 22 C-12.31 22 -14.62 22 -17 22 C-17 22.66 -17 23.32 -17 24 C-20.3 24 -23.6 24 -27 24 C-28.2 19.99 -28.09 17.57 -26.31 13.88 C-24.59 10.77 -22.84 8.2 -20 6 C-19.01 6 -18.02 6 -17 6 C-17 5.34 -17 4.68 -17 4 C-16.34 4 -15.68 4 -15 4 C-15 3.34 -15 2.68 -15 2 C-14.01 2 -13.02 2 -12 2 C-12 1.34 -12 0.68 -12 0 C-10.38 -0.19 -8.75 -0.38 -7.12 -0.56 C-6.22 -0.67 -5.32 -0.77 -4.38 -0.88 C-2 -1 -2 -1 0 0 Z " fill="#947E6B" transform="translate(78,179)"/>
<path d="M0 0 C10.8 -0.02 21.61 -0.04 32.41 -0.05 C37.43 -0.06 42.45 -0.06 47.46 -0.08 C52.3 -0.09 57.14 -0.09 61.97 -0.09 C63.82 -0.1 65.67 -0.1 67.52 -0.11 C70.1 -0.11 72.69 -0.11 75.27 -0.11 C76.04 -0.12 76.81 -0.12 77.61 -0.12 C82.89 -0.11 82.89 -0.11 84 1 C85.6 1.12 87.2 1.18 88.8 1.21 C89.31 1.22 89.31 1.22 91.89 1.27 C93 1.28 94.11 1.3 95.25 1.32 C96.38 1.34 97.52 1.36 98.68 1.38 C102.31 1.44 105.93 1.5 109.56 1.56 C112.01 1.61 114.47 1.65 116.92 1.69 C122.95 1.8 128.97 1.9 135 2 C135 2.66 135 3.32 135 4 C125.96 4.02 116.92 4.04 107.88 4.05 C103.68 4.06 99.48 4.06 95.28 4.08 C91.23 4.09 87.18 4.09 83.13 4.09 C81.58 4.1 80.04 4.1 78.49 4.11 C76.33 4.11 74.16 4.11 71.99 4.11 C70.76 4.12 69.53 4.12 68.26 4.12 C65.36 4.01 62.82 3.61 60 3 C58.64 2.92 57.27 2.87 55.9 2.87 C55.13 2.87 54.36 2.86 53.57 2.86 C53.16 2.86 53.16 2.86 51.08 2.87 C50.65 2.87 50.65 2.87 48.47 2.86 C46.66 2.86 44.84 2.87 43.03 2.87 C40.27 2.87 37.52 2.87 34.77 2.86 C32.99 2.86 31.22 2.87 29.45 2.87 C28.64 2.87 27.83 2.86 26.99 2.86 C23.13 2.88 19.37 3.03 15.53 3.51 C10.71 4.03 5.85 4 1 4 C0.67 20.5 0.34 37 0 54 C-0.33 54 -0.66 54 -1 54 C-1.03 46.63 -1.04 39.26 -1.05 31.89 C-1.06 29.38 -1.07 26.88 -1.08 24.37 C-1.09 20.77 -1.09 17.17 -1.1 13.57 C-1.1 12.44 -1.11 11.32 -1.11 10.15 C-1.11 9.11 -1.11 8.07 -1.11 7 C-1.12 6.08 -1.12 5.16 -1.12 4.21 C-1 2 -1 2 0 0 Z " fill="#8D5855" transform="translate(261,225)"/>
<path d="M0 0 C13.2 0 26.4 0 40 0 C40.64 20.35 41.18 40.64 41 61 C40.67 61 40.34 61 40 61 C38.94 40.98 38.92 21.05 39 1 C26.46 1 13.92 1 1 1 C1 3.97 1 6.94 1 10 C0.67 11.67 0.34 13.33 0 15 C-0.13 17.94 -0.09 20.87 -0.06 23.81 C-0.05 25.61 -0.05 27.41 -0.04 29.21 C-0.03 30.15 -0.02 31.1 -0.02 32.07 C0.09 49.28 -0.08 66.46 -0.64 83.67 C-0.69 85.08 -0.74 86.48 -0.78 87.89 C-0.8 88.56 -0.83 89.23 -0.85 89.92 C-1.02 95.64 -1.02 101.35 -0.94 107.08 C-0.92 108.72 -0.96 110.36 -1 112 C-1.16 112.16 -1.16 112.16 -2 113 C-2.12 114.39 -2.18 115.78 -2.21 117.17 C-2.23 118.06 -2.25 118.95 -2.27 119.87 C-2.28 120.84 -2.3 121.82 -2.32 122.82 C-2.34 123.84 -2.36 124.85 -2.38 125.89 C-2.42 128.05 -2.46 130.21 -2.5 132.37 C-2.56 135.6 -2.63 138.83 -2.69 142.05 C-2.96 155.7 -3.05 169.35 -3 183 C-3.33 183 -3.66 183 -4 183 C-4.78 176.36 -5.14 169.85 -5.09 163.17 C-5.08 162.23 -5.08 161.29 -5.07 160.32 C-5.06 157.22 -5.03 154.11 -5 151 C-4.99 149.93 -4.98 148.85 -4.97 147.75 C-4.88 139.25 -4.76 130.75 -4.62 122.25 C-4.62 121.92 -4.62 121.92 -4.59 120.23 C-4.23 97.39 -3.76 74.56 -3.19 51.73 C-3.1 48.47 -3.02 45.21 -2.95 41.95 C-2.86 38.09 -2.76 34.23 -2.65 30.37 C-2.62 28.96 -2.58 27.55 -2.55 26.13 C-2.51 24.17 -2.45 22.21 -2.39 20.25 C-2.37 19.16 -2.34 18.07 -2.31 16.94 C-1.86 11.26 -0.87 5.63 0 0 Z " fill="#C6C0BE" transform="translate(224,8)"/>
<path d="M0 0 C0.33 0 0.66 0 1 0 C1 68.64 1 137.28 1 208 C0.34 208 -0.32 208 -1 208 C-1 208.66 -1 209.32 -1 210 C-1.99 210 -2.98 210 -4 210 C-4.33 210.66 -4.33 210.66 -6 214 C-7.32 214 -8.64 214 -10 214 C-10 214.66 -10 215.32 -10 216 C-11.32 216 -12.64 216 -14 216 C-14 216.66 -14 217.32 -14 218 C-14.99 218 -15.98 218 -17 218 C-17 218.99 -17 219.98 -17 221 C-18.44 221.08 -19.87 221.14 -21.31 221.19 C-22.11 221.22 -22.91 221.26 -23.74 221.29 C-26.48 220.94 -27.29 220.11 -29 218 C-27.93 218.21 -26.85 218.41 -25.75 218.62 C-20.85 219.11 -20.85 219.11 -18 217 C-17.34 216.01 -16.68 215.02 -16 214 C-15.34 214 -14.68 214 -14 214 C-13.67 213.67 -13.67 213.67 -12 212 C-11.2 211.9 -10.39 211.79 -9.56 211.69 C-7 211 -7 211 -5.38 208.5 C-4.92 207.68 -4.47 206.85 -4 206 C-3.01 205.67 -2.02 205.34 -1 205 C-0.97 199.19 -0.95 193.38 -0.94 187.56 C-0.94 186.66 -0.93 185.75 -0.93 184.81 C-0.91 172.54 -1.02 160.28 -1.26 148.01 C-1.28 146.75 -1.31 145.48 -1.33 144.18 C-1.45 137.91 -1.59 131.64 -1.73 125.37 C-1.78 123.04 -1.83 120.7 -1.88 118.36 C-1.91 117.32 -1.93 116.28 -1.96 115.2 C-2.07 109.95 -1.95 104.81 -1.53 99.57 C-0.77 89.89 -0.77 80.21 -0.68 70.51 C-0.66 68.47 -0.64 66.42 -0.62 64.38 C-0.57 59.05 -0.52 53.72 -0.47 48.39 C-0.42 42.93 -0.36 37.48 -0.31 32.02 C-0.2 21.35 -0.1 10.67 0 0 Z " fill="#BDACA8" transform="translate(259,291)"/>
<path d="M0 0 C6.05 -0.2 6.05 -0.2 8 0 C8.66 0.66 9.32 1.32 10 2 C10.33 1.34 10.66 0.68 11 0 C11.66 0.33 12.32 0.66 13 1 C12.67 2.65 12.34 4.3 12 6 C12.66 6 13.32 6 14 6 C13.01 8.97 12.02 11.94 11 15 C10.34 15 9.68 15 9 15 C9.33 15.99 9.66 16.98 10 18 C9.79 18.62 9.59 19.24 9.38 19.88 C8.82 22.99 10.25 24.49 12 27 C12.66 26.67 13.32 26.34 14 26 C14.66 27.32 15.32 28.64 16 30 C16.66 30 17.32 30 18 30 C18 30.66 18 31.32 18 32 C15.03 32 12.06 32 9 32 C8.34 30.68 7.68 29.36 7 28 C6.34 28 5.68 28 5 28 C4.86 27.2 4.71 26.39 4.56 25.56 C4 23 4 23 3 22 C2.67 21.01 2.34 20.02 2 19 C2.66 19 3.32 19 4 19 C4 18.01 4 17.02 4 16 C3.34 16 2.68 16 2 16 C1.34 14.35 0.68 12.7 0 11 C-1.12 13.25 -1.12 13.25 -2 16 C-1.12 18.31 -1.12 18.31 0 20 C-1.65 21.32 -3.3 22.64 -5 24 C-4.98 23.11 -4.96 22.23 -4.94 21.31 C-5 18 -5 18 -5.56 15.38 C-6.02 12.87 -5.8 11.39 -5 9 C-4.34 9 -3.68 9 -3 9 C-2.67 7.02 -2.34 5.04 -2 3 C-1.34 3.33 -0.68 3.66 0 4 C0 2.68 0 1.36 0 0 Z " fill="#C2B2A1" transform="translate(111,199)"/>
<path d="M0 0 C4.6 0.01 9.2 0.01 13.8 0.02 C22.73 0.03 31.65 0.05 40.58 0.07 C40.58 0.4 40.58 0.73 40.58 1.07 C40.2 1.07 40.2 1.07 38.27 1.1 C31.1 1.2 23.94 1.3 16.77 1.41 C13.09 1.46 9.4 1.52 5.72 1.57 C2.16 1.61 -1.39 1.67 -4.94 1.72 C-6.3 1.74 -7.66 1.76 -9.02 1.78 C-10.91 1.8 -12.81 1.83 -14.71 1.86 C-15.79 1.88 -16.87 1.89 -17.98 1.91 C-20.42 2.07 -20.42 2.07 -21.42 3.07 C-32.99 4.35 -44.73 4.36 -56.36 4.63 C-58.12 4.67 -59.88 4.72 -61.64 4.76 C-65.9 4.87 -70.16 4.97 -74.42 5.07 C-74.42 5.4 -74.42 5.73 -74.42 6.07 C-88.42 7.15 -102.38 7.18 -116.42 7.07 C-116.42 6.74 -116.42 6.41 -116.42 6.07 C-112.79 6.07 -109.16 6.07 -105.42 6.07 C-105.42 5.41 -105.42 4.75 -105.42 4.07 C-94.86 3.74 -84.3 3.41 -73.42 3.07 C-73.42 2.41 -73.42 1.75 -73.42 1.07 C-48.94 0.16 -24.49 -0.06 0 0 Z " fill="#9C5E41" transform="translate(249.4195556640625,1.93133544921875)"/>
<path d="M0 0 C0.33 0 0.66 0 1 0 C1.06 1.05 1.12 2.1 1.18 3.18 C1.94 15.96 1.94 15.96 2.56 21.06 C2.97 24.75 3 28.3 3 32 C3.33 32.99 3.66 33.98 4 35 C3.67 35.99 3.34 36.98 3 38 C2.77 43.55 2.77 43.55 4 46 C3.67 46.17 3.67 46.17 2 47 C3.88 53.75 3.88 53.75 5 56 C4.34 56 3.68 56 3 56 C3.81 58.94 3.81 58.94 5 62 C5.99 62.33 6.98 62.66 8 63 C8 65.31 8 67.62 8 70 C9.98 70.33 11.96 70.66 14 71 C13 74 12 77 11 80 C10.34 80 9.68 80 9 80 C8.67 79.34 8.34 78.68 8 78 C7.67 79.65 7.34 81.3 7 83 C7.66 83 8.32 83 9 83 C9.33 84.65 9.66 86.3 10 88 C8.35 87.67 6.7 87.34 5 87 C5 86.01 5 85.02 5 84 C4.01 84 3.02 84 2 84 C-0.7 56.05 -0.2 28.04 0 0 Z " fill="#BCACA0" transform="translate(220,421)"/>
<path d="M0 0 C33 0 66 0 100 0 C100 0.66 100 1.32 100 2 C101.65 2.17 101.65 2.17 110 3 C110 3.66 110 4.32 110 5 C102.06 6.09 94.36 5.95 86.38 5.56 C85.78 5.54 85.78 5.54 82.75 5.4 C79.84 5.28 76.92 5.14 74 5 C74 4.34 74 3.68 74 3 C61.79 2.83 61.79 2.83 0 2 C0 1.34 0 0.68 0 0 Z " fill="#D88B57" transform="translate(295,0)"/>
<path d="M0 0 C0.66 0 1.32 0 2 0 C2 0.99 2 1.98 2 3 C2.66 3 3.32 3 4 3 C3.96 3.87 3.92 4.73 3.88 5.62 C4 9 4 9 5.06 11.62 C6.5 16.79 5.63 21.73 5 27 C4.01 27 3.02 27 2 27 C2 27.66 2 28.32 2 29 C1.34 29 0.68 29 0 29 C0 29.66 0 30.32 0 31 C-0.99 31 -1.98 31 -3 31 C-3 31.66 -3 32.32 -3 33 C-5.31 33 -7.62 33 -10 33 C-10.33 32.01 -10.66 31.02 -11 30 C-10.34 30 -9.68 30 -9 30 C-9 29.01 -9 28.02 -9 27 C-8.34 27 -7.68 27 -7 27 C-6.67 25.68 -6.34 24.36 -6 23 C-5.01 23 -4.02 23 -3 23 C-2.67 20.69 -2.34 18.38 -2 16 C-2.99 16.33 -3.98 16.66 -5 17 C-5.66 14.69 -6.32 12.38 -7 10 C-6.34 10.33 -5.68 10.66 -5 11 C-4.67 9.68 -4.34 8.36 -4 7 C-4.66 7 -5.32 7 -6 7 C-6.33 5.02 -6.66 3.04 -7 1 C-6.34 1.99 -5.68 2.98 -5 4 C-4.34 3.67 -3.68 3.34 -3 3 C-3 3.66 -3 4.32 -3 5 C-2.34 5 -1.68 5 -1 5 C-0.67 3.35 -0.34 1.7 0 0 Z " fill="#97806D" transform="translate(80,258)"/>
<path d="M0 0 C0.33 0 0.66 0 1 0 C1 4.95 1 9.9 1 15 C1.99 15 2.98 15 4 15 C4 15.99 4 16.98 4 18 C4.95 18.31 5.9 18.62 6.88 18.94 C10 20 10 20 12 21 C13.54 21.22 15.08 21.41 16.62 21.56 C17.44 21.65 18.26 21.73 19.1 21.82 C19.41 21.85 19.41 21.85 21 22 C21 21.01 21 20.02 21 19 C21.99 19 22.98 19 24 19 C24 18.34 24 17.68 24 17 C25.32 17 26.64 17 28 17 C28 16.34 28 15.68 28 15 C28.8 14.71 29.61 14.42 30.44 14.12 C33 13 33 13 34 11 C34.99 11 35.98 11 37 11 C37 10.34 37 9.68 37 9 C37.66 9 38.32 9 39 9 C39 9.99 39 10.98 39 12 C37.68 12 36.36 12 35 12 C35.25 12.74 35.5 13.49 35.75 14.25 C36 17 36 17 34.19 19.31 C32 21 32 21 30 21 C30 21.66 30 22.32 30 23 C28.68 23 27.36 23 26 23 C26 23.66 26 24.32 26 25 C22 26.33 18.31 26.26 14.12 26.31 C13.32 26.34 12.52 26.37 11.69 26.4 C7.58 26.44 5.51 26.31 1.93 24.11 C0 22 0 22 0 20 C-0.93 19.73 -1.86 19.46 -2.81 19.19 C-5.76 18.09 -7.06 17.38 -9 15 C-6.33 15.67 -3.67 16.33 -1 17 C-0.67 11.39 -0.34 5.78 0 0 Z " fill="#664D42" transform="translate(221,490)"/>
<path d="M0 0 C0.66 0 1.32 0 2 0 C4.18 7.26 4.6 14.45 5 22 C3.21 19.31 2.34 17.34 1.38 14.31 C1.24 13.91 1.24 13.91 0.59 11.86 C0.39 11.25 0.2 10.63 0 10 C0.66 9.67 1.32 9.34 2 9 C2 8.01 2 7.02 2 6 C1.34 6 0.68 6 0 6 C-0.33 6.66 -0.66 7.32 -1 8 C-1.33 8 -1.66 8 -2 8 C-2.33 10.31 -2.66 12.62 -3 15 C-3.66 15 -4.32 15 -5 15 C-4.67 15.99 -4.34 16.98 -4 18 C-4.69 19.71 -5.39 21.41 -6.16 23.08 C-7.43 25.98 -8.19 28.95 -9 32 C-11.38 32.12 -11.38 32.12 -14 32 C-16.59 29.41 -16.36 28.16 -16.44 24.56 C-16.35 19.34 -16.35 19.34 -13.75 16.81 C-11 16 -11 16 -7 16 C-7.35 15.13 -7.7 14.27 -8.06 13.38 C-9.07 9.75 -8.86 7.61 -8 4 C-6.02 4 -4.04 4 -2 4 C-2 3.34 -2 2.68 -2 2 C-1.34 2 -0.68 2 0 2 C0 1.34 0 0.68 0 0 Z " fill="#776455" transform="translate(83,215)"/>
<path d="M0 0 C1.32 0 2.64 0 4 0 C4 9.9 4 19.8 4 30 C1.69 30 -0.62 30 -3 30 C-3 28.35 -3 26.7 -3 25 C-4.65 24.67 -6.3 24.34 -8 24 C-7.67 22.02 -7.34 20.04 -7 18 C-4.69 17.34 -2.38 16.68 0 16 C0 15.34 0 14.68 0 14 C-2.31 13.34 -4.62 12.68 -7 12 C-7.33 10.68 -7.66 9.36 -8 8 C-5.36 8 -2.72 8 0 8 C0 7.34 0 6.68 0 6 C-1.32 6 -2.64 6 -4 6 C-4 4.68 -4 3.36 -4 2 C-2.68 2 -1.36 2 0 2 C0 1.34 0 0.68 0 0 Z " fill="#947247" transform="translate(504,215)"/>
<path d="M0 0 C1.52 3.9 0.45 6.4 -1.06 10.19 C-1.47 11.25 -1.87 12.32 -2.29 13.42 C-4 16 -4 16 -6.94 16.83 C-7.95 16.88 -8.96 16.94 -10 17 C-11.28 17.19 -12.56 17.37 -13.88 17.56 C-14.91 17.71 -15.94 17.85 -17 18 C-17 18.66 -17 19.32 -17 20 C-17.55 20.18 -18.11 20.36 -18.68 20.55 C-19.4 20.8 -20.13 21.05 -20.88 21.31 C-21.59 21.56 -22.31 21.8 -23.05 22.05 C-25 23 -25 23 -27 26 C-27.66 26 -28.32 26 -29 26 C-29 25.34 -29 24.68 -29 24 C-28.34 24 -27.68 24 -27 24 C-27 23.01 -27 22.02 -27 21 C-27.93 21.82 -28.86 22.65 -29.81 23.5 C-32.62 26 -32.62 26 -36 26 C-36.12 26.68 -36.25 27.36 -36.38 28.06 C-37.09 31.43 -38.03 34.7 -39 38 C-39.66 38 -40.32 38 -41 38 C-40.83 31.18 -39.66 27.09 -35 22 C-33.68 22 -32.36 22 -31 22 C-31 21.34 -31 20.68 -31 20 C-30.34 20 -29.68 20 -29 20 C-29 19.34 -29 18.68 -29 18 C-27.35 18 -25.7 18 -24 18 C-24 17.34 -24 16.68 -24 16 C-22.35 16 -20.7 16 -19 16 C-19 15.34 -19 14.68 -19 14 C-15.63 12.5 -13.8 12 -10 12 C-10 11.34 -10 10.68 -10 10 C-9.34 10 -8.68 10 -8 10 C-8 9.34 -8 8.68 -8 8 C-7.34 8 -6.68 8 -6 8 C-6 7.34 -6 6.68 -6 6 C-5.69 5.88 -5.69 5.88 -4.12 5.25 C-1.65 3.79 -1.05 2.62 0 0 Z " fill="#79513E" transform="translate(41,233)"/>
<path d="M0 0 C1.07 3.49 1.13 6.73 1.12 10.38 C1.13 11.48 1.13 12.58 1.13 13.71 C1 17 1 17 0.5 19.68 C-0.09 23.63 -0.11 27.49 -0.08 31.48 C-0.08 32.31 -0.07 33.15 -0.07 34.01 C-0.07 35.82 -0.06 37.63 -0.05 39.44 C-0.02 44.4 -0.01 49.36 -0 54.31 C-0 55.35 -0 56.39 0 57.46 C0.01 68.86 -0.09 80.25 -0.22 91.64 C-0.23 92.65 -0.24 93.67 -0.25 94.71 C-0.32 100.85 -0.39 106.99 -0.46 113.13 C-0.53 118.45 -0.58 123.77 -0.64 129.09 C-0.76 139.39 -0.88 149.7 -1 160 C-1.33 160 -1.66 160 -2 160 C-2.13 149.27 -2.26 138.54 -2.39 127.81 C-2.45 122.82 -2.51 117.83 -2.57 112.84 C-2.83 92.34 -3.05 71.84 -3.08 51.33 C-3.09 49.51 -3.09 47.69 -3.1 45.87 C-3.22 9.65 -3.22 9.65 0 0 Z " fill="#B9B1AE" transform="translate(219,229)"/>
<path d="M0 0 C2.1 -0.05 4.21 -0.09 6.31 -0.12 C6.9 -0.14 6.9 -0.14 9.86 -0.2 C13 0 13 0 16 2 C16.19 5.12 16.19 5.12 16 8 C15.34 8 14.68 8 14 8 C14 8.66 14 9.32 14 10 C10.3 12.38 7.07 12.21 2.75 12.12 C1.49 12.11 0.22 12.09 -1.08 12.07 C-2.04 12.05 -3.01 12.02 -4 12 C-4.8 8.71 -5.1 7.29 -4 4 C-3.34 4 -2.68 4 -2 4 C-2 3.34 -2 2.68 -2 2 C-1.34 2 -0.68 2 0 2 C0 1.34 0 0.68 0 0 Z " fill="#927F6F" transform="translate(112,345)"/>
<path d="M0 0 C13.86 0 27.72 0 42 0 C42.16 0.82 42.16 0.82 43 5 C42.84 4.67 42.84 4.67 42 3 C40.68 3 39.36 3 38 3 C38 2.34 38 1.68 38 1 C37.34 1 36.68 1 36 1 C36 1.66 36 2.32 36 3 C34.99 3.03 33.98 3.05 32.93 3.08 C29.1 3.17 25.27 3.27 21.44 3.37 C19.8 3.42 18.16 3.46 16.51 3.5 C8.44 3.7 0.4 3.93 -7.66 4.53 C-15.59 5.1 -23.49 5.11 -31.44 5.06 C-32.86 5.06 -34.29 5.05 -35.71 5.05 C-39.14 5.04 -42.57 5.02 -46 5 C-46 4.67 -46 4.34 -46 4 C-30.63 2.64 -15.43 1.69 0 2 C0 1.34 0 0.68 0 0 Z " fill="#A66C70" transform="translate(176,227)"/>
<path d="M0 0 C0.66 0 1.32 0 2 0 C2 0.66 2 1.32 2 2 C2.66 2 3.32 2 4 2 C4.33 1.34 4.66 0.68 5 0 C7 2 7 2 7.19 5 C7 8 7 8 6 10 C4.68 10 3.36 10 2 10 C2 10.66 2 11.32 2 12 C-0.08 12.05 -2.17 12.09 -4.25 12.12 C-4.83 12.14 -4.83 12.14 -7.77 12.2 C-10.83 12.01 -12.44 11.61 -15 10 C-15 7.36 -15 4.72 -15 2 C-10.38 2 -5.76 2 -1 2 C-0.67 1.34 -0.34 0.68 0 0 Z " fill="#93806E" transform="translate(104,271)"/>
<path d="M0 0 C7.59 0 15.18 0 23 0 C23 0.33 23 0.66 23 1 C20.03 1.33 20.03 1.33 5 3 C4.67 4.32 4.34 5.64 4 7 C4 6.01 4 5.02 4 4 C2.68 4 1.36 4 0 4 C0.17 5.07 0.33 6.15 0.5 7.25 C1 11 1 11 1 15 C1.66 14.01 2.32 13.02 3 12 C3.66 13.32 4.32 14.64 5 16 C5.66 15.34 6.32 14.68 7 14 C6.62 10.88 6.62 10.88 6 8 C8.52 9.97 8.99 10.97 9.69 14.19 C9.79 15.12 9.89 16.04 10 17 C9.34 17 8.68 17 8 17 C7.95 17.52 7.95 17.52 7.69 20.12 C7.01 23.95 5.89 26.63 4 30 C4.66 30 5.32 30 6 30 C6.33 29.34 6.66 28.68 7 28 C7.8 31.29 8.1 32.71 7 36 C5.68 35.67 4.36 35.34 3 35 C2.85 34.25 2.71 33.51 2.56 32.74 C1.9 29.37 1.23 26 0.56 22.62 C0.33 21.45 0.1 20.27 -0.13 19.06 C-0.36 17.94 -0.58 16.82 -0.81 15.66 C-1.01 14.63 -1.22 13.59 -1.43 12.52 C-2 10 -2 10 -3 8 C-3.04 6 -3.04 4 -3 2 C-2.01 2 -1.02 2 0 2 C0 1.34 0 0.68 0 0 Z " fill="#877464" transform="translate(89,197)"/>
<path d="M0 0 C1.67 0 3.33 0 5 0 C5.33 1.98 5.66 3.96 6 6 C5.67 5.34 5.34 4.68 5 4 C4.34 4 3.68 4 3 4 C3.14 4.31 3.14 4.31 3.88 5.86 C4.06 6.27 4.06 6.27 5 8.31 C5.37 9.11 5.74 9.91 6.12 10.74 C7 13 7 13 7 16 C7.66 16 8.32 16 9 16 C9.98 22.05 9.98 22.05 10 24 C9.34 24.66 8.68 25.32 8 26 C7.01 24.68 6.02 23.36 5 22 C4.78 22.33 4.78 22.33 3.69 24 C3.13 24.66 2.57 25.32 2 26 C1.01 26 0.02 26 -1 26 C-1.29 25.03 -1.58 24.06 -1.88 23.06 C-3 20 -3 20 -5 19 C-4.78 18.45 -4.57 17.89 -4.34 17.32 C-4.07 16.6 -3.79 15.87 -3.5 15.12 C-3.36 14.77 -3.36 14.77 -2.66 12.95 C-2 11 -2 11 -2 9 C-1.34 9 -0.68 9 0 9 C0 6.03 0 3.06 0 0 Z " fill="#A38E7A" transform="translate(80,221)"/>
<path d="M0 0 C2.31 0 4.62 0 7 0 C7 0.66 7 1.32 7 2 C8.65 2 10.3 2 12 2 C12 2.66 12 3.32 12 4 C13.32 4 14.64 4 16 4 C16 4.66 16 5.32 16 6 C16.99 6 17.98 6 19 6 C19 6.66 19 7.32 19 8 C19.35 8.12 19.35 8.12 21.12 8.75 C24.43 10.19 27.17 11.76 30 14 C30 15.32 30 16.64 30 18 C29.34 18 28.68 18 28 18 C27.34 19.32 26.68 20.64 26 22 C24.74 18.23 25.63 16.63 27 13 C25.02 12.67 23.04 12.34 21 12 C21 11.34 21 10.68 21 10 C20.68 9.88 20.68 9.88 19.06 9.25 C17.31 8.54 15.58 7.8 13.88 6.98 C5.94 3.2 5.94 3.2 1 4 C-1.06 5.38 -1.06 5.38 -3 7 C-6.93 8.91 -10.69 9.42 -15 10 C-15.33 10.33 -15.66 10.66 -16 11 C-18.48 11.37 -20.95 11.71 -23.44 12 C-30.73 12.87 -30.73 12.87 -33 14 C-33 13.34 -33 12.68 -33 12 C-33.99 12 -34.98 12 -36 12 C-36.33 11.34 -36.66 10.68 -37 10 C-39.07 9.37 -39.07 9.37 -41.56 8.88 C-41.98 8.79 -41.98 8.79 -44.07 8.37 C-44.7 8.25 -45.34 8.12 -46 8 C-46.33 6.68 -46.66 5.36 -47 4 C-46.34 4 -45.68 4 -45 4 C-45 4.66 -45 5.32 -45 6 C-44.3 6.12 -43.6 6.25 -42.88 6.38 C-40 7 -40 7 -37.38 8 C-33.25 9.22 -29.4 9.45 -25.12 9.62 C-24.73 9.64 -24.73 9.64 -22.75 9.74 C-20.83 9.84 -18.92 9.92 -17 10 C-17 9.34 -17 8.68 -17 8 C-16.4 7.88 -15.79 7.76 -15.17 7.63 C-14.37 7.47 -13.57 7.3 -12.75 7.12 C-11.96 6.96 -11.17 6.8 -10.36 6.63 C-8.03 6.01 -6.11 5.15 -4 4 C-4 3.34 -4 2.68 -4 2 C-2.68 2 -1.36 2 0 2 C0 1.34 0 0.68 0 0 Z " fill="#B2A76B" transform="translate(63,293)"/>
<path d="M0 0 C1.68 0.29 3.34 0.62 5 1 C5.33 3.31 5.66 5.62 6 8 C6.66 8 7.32 8 8 8 C8 8.99 8 9.98 8 11 C8.33 11.99 8.66 12.98 9 14 C8.67 14.66 8.34 15.32 8 16 C7.01 16 6.02 16 5 16 C4.67 16.66 4.34 17.32 4 18 C2.35 18 0.7 18 -1 18 C-1.33 16.68 -1.66 15.36 -2 14 C-2.66 14 -3.32 14 -4 14 C-4.33 14.99 -4.66 15.98 -5 17 C-5 16.01 -5 15.02 -5 14 C-6.65 14 -8.3 14 -10 14 C-9.81 10.69 -9.81 10.69 -9 7 C-6.58 5.08 -5.12 4 -2 4 C-1.67 3.01 -1.34 2.02 -1 1 C-0.67 0.67 -0.34 0.34 0 0 Z " fill="#A48C77" transform="translate(64,183)"/>
<path d="M0 0 C0.33 0 0.66 0 1 0 C1 1.65 1 3.3 1 5 C1.99 5.33 2.98 5.66 4 6 C3.67 7.32 3.34 8.64 3 10 C2.67 8.68 2.34 7.36 2 6 C1.34 6.66 0.68 7.32 0 8 C0.33 8.99 0.66 9.98 1 11 C1.66 11 2.32 11 3 11 C3 11.66 3 12.32 3 13 C2.67 13.17 2.67 13.17 1 14 C-0.28 19.45 -0.28 19.45 1 22 C-0.11 25.34 -1.47 26.64 -4 29 C-2.12 34.75 -2.12 34.75 -1 37 C-4.88 35.25 -4.88 35.25 -6 33 C-6.07 30.96 -6.08 28.92 -6.06 26.88 C-6.05 25.78 -6.04 24.68 -6.04 23.55 C-6.02 22.71 -6.01 21.87 -6 21 C-6.66 21 -7.32 21 -8 21 C-8.29 16.96 -8.45 13.03 -8 9 C-5.56 6.38 -5.56 6.38 -3 5 C-2.67 4.34 -2.34 3.68 -2 3 C-1.34 3 -0.68 3 0 3 C0 2.01 0 1.02 0 0 Z " fill="#614E37" transform="translate(93,308)"/>
<path d="M0 0 C2.02 2.98 2.37 5.44 2 9 C-0.87 11.87 -4.1 11.96 -8 12 C-11 11.06 -11 11.06 -13 10 C-13 9.34 -13 8.68 -13 8 C-13.64 7.75 -14.28 7.5 -14.94 7.25 C-17 6 -17 6 -17.81 4 C-18 2 -18 2 -17 0 C-16.7 0.01 -16.7 0.01 -15.21 0.04 C-10.19 0.09 -4.64 -1.55 0 0 Z " fill="#917E6D" transform="translate(111,287)"/>
<path d="M0 0 C2.64 0 5.28 0 8 0 C11.12 5.28 11.12 5.28 10.62 8.25 C7.73 11.37 4.02 11.82 -0.1 12.19 C-3.81 12.3 -7.03 12.38 -10 10 C-10.75 7.88 -10.75 7.88 -11 6 C-10.34 6 -9.68 6 -9 6 C-8.67 5.34 -8.34 4.68 -8 4 C-4.77 1.85 -3.72 1.8 0 2 C0 1.34 0 0.68 0 0 Z " fill="#907D6C" transform="translate(98,257)"/>
<path d="M0 0 C0.33 0.66 0.66 1.32 1 2 C1.66 2 2.32 2 3 2 C2.67 3.32 2.34 4.64 2 6 C2.99 5.67 3.98 5.34 5 5 C8 9.62 8 9.62 8 13 C6.68 13.33 5.36 13.66 4 14 C3.67 15.98 3.34 17.96 3 20 C-0.7 20.95 -3.3 20.95 -7 20 C-7.33 18.68 -7.66 17.36 -8 16 C-8.66 16 -9.32 16 -10 16 C-9 14 -9 14 -6 12 C-4.81 9.88 -4.81 9.88 -4 8 C-3.34 8.33 -2.68 8.66 -2 9 C-2 6.36 -2 3.72 -2 1 C-1.34 0.67 -0.68 0.34 0 0 Z " fill="#684E42" transform="translate(165,455)"/>
<path d="M0 0 C0.48 0.01 0.48 0.01 2.94 0.06 C2.94 0.72 2.94 1.38 2.94 2.06 C4.95 3.08 6.95 4.07 9.01 4.99 C9.69 5.3 10.36 5.62 11.06 5.94 C11.75 6.24 12.43 6.55 13.13 6.87 C15.43 8.39 16.06 9.45 16.94 12.06 C16.94 14.04 16.94 16.02 16.94 18.06 C11.66 18.06 6.38 18.06 0.94 18.06 C0.94 17.4 0.94 16.74 0.94 16.06 C1.93 16.06 2.92 16.06 3.94 16.06 C4.27 15.4 4.6 14.74 4.94 14.06 C5.93 14.39 6.92 14.72 7.94 15.06 C8.27 13.41 8.6 11.76 8.94 10.06 C7.62 10.06 6.3 10.06 4.94 10.06 C4.94 9.4 4.94 8.74 4.94 8.06 C3.62 8.06 2.3 8.06 0.94 8.06 C0.94 7.4 0.94 6.74 0.94 6.06 C-0.71 6.06 -2.36 6.06 -4.06 6.06 C-4.11 4.4 -4.1 2.73 -4.06 1.06 C-3.06 0.06 -3.06 0.06 0 0 Z " fill="#AE7F4E" transform="translate(491.0625,242.9375)"/>
<path d="M0 0 C1.32 5.26 1.32 5.26 0.06 8.19 C-3.19 11.05 -6.51 10.43 -10.69 10.25 C-11.48 10.23 -12.28 10.21 -13.1 10.2 C-15.07 10.15 -17.03 10.08 -19 10 C-19.66 8.02 -20.32 6.04 -21 4 C-20.34 4 -19.68 4 -19 4 C-19 3.34 -19 2.68 -19 2 C-16.4 1.47 -13.79 0.95 -11.19 0.44 C-10.45 0.29 -9.71 0.13 -8.95 -0.02 C-3.34 -1.11 -3.34 -1.11 0 0 Z " fill="#947F6E" transform="translate(132,359)"/>
<path d="M0 0 C1.65 0 3.3 0 5 0 C5 0.66 5 1.32 5 2 C5.66 2 6.32 2 7 2 C7 6.95 7 11.9 7 17 C2.05 17.33 -2.9 17.66 -8 18 C-8 16.68 -8 15.36 -8 14 C-7.01 13.67 -6.02 13.34 -5 13 C-4.67 10.69 -4.34 8.38 -4 6 C-2.68 5.67 -1.36 5.34 0 5 C0 3.35 0 1.7 0 0 Z " fill="#986F49" transform="translate(501,195)"/>
<path d="M0 0 C0.33 0 0.66 0 1 0 C1.05 2 1.09 4 1.12 6 C1.15 7.11 1.17 8.23 1.2 9.38 C1.01 12.72 0.35 15.61 -0.48 18.84 C-1.3 22.27 -1.8 25.73 -2.29 29.22 C-2.4 29.96 -2.51 30.71 -2.62 31.47 C-2.96 33.81 -3.29 36.16 -3.62 38.5 C-3.86 40.1 -4.09 41.7 -4.32 43.3 C-4.88 47.2 -5.44 51.1 -6 55 C-6.33 55 -6.66 55 -7 55 C-7.33 52.36 -7.66 49.72 -8 47 C-8.99 48.32 -9.98 49.64 -11 51 C-10.58 46.6 -10.14 42.35 -9.06 38.06 C-7.27 30.53 -6.78 22.69 -6 15 C-5.67 16.32 -5.34 17.64 -5 19 C-4.34 19 -3.68 19 -3 19 C-1.21 12.68 -0.46 6.55 0 0 Z " fill="#6B5546" transform="translate(407,174)"/>
<path d="M0 0 C0.33 0 0.66 0 1 0 C1.12 1.13 1.25 2.27 1.38 3.44 C1.58 4.61 1.79 5.79 2 7 C5.01 8.5 8.09 8.13 11.39 8.11 C12.15 8.11 12.91 8.11 13.69 8.11 C16.21 8.11 18.74 8.11 21.26 8.1 C23 8.1 24.75 8.09 26.5 8.09 C31.1 8.09 35.7 8.08 40.3 8.07 C44.99 8.06 49.68 8.05 54.37 8.05 C63.58 8.04 72.79 8.02 82 8 C82.16 8.33 82.16 8.33 83 10 C55.61 10 28.22 10 0 10 C0 6.7 0 3.4 0 0 Z " fill="#4E5459" transform="translate(259,177)"/>
<path d="M0 0 C0.33 0 0.66 0 1 0 C1.44 13.11 -3.53 25.32 -9 37 C-9.66 37 -10.32 37 -11 37 C-11.33 38.32 -11.66 39.64 -12 41 C-12.66 41 -13.32 41 -14 41 C-14 41.66 -14 42.32 -14 43 C-14.66 43 -15.32 43 -16 43 C-16 43.66 -16 44.32 -16 45 C-16.99 45 -17.98 45 -19 45 C-20.12 39.25 -20.12 39.25 -19 37 C-17.68 36.32 -16.34 35.65 -15 35 C-14.34 34.34 -13.68 33.68 -13 33 C-12.5 32.83 -12.5 32.83 -10 32 C-9.23 30.39 -8.47 28.77 -7.83 27.11 C-6.6 23.99 -5.17 20.97 -3.77 17.92 C-3 16 -3 16 -3 14 C-4.98 14.33 -6.96 14.66 -9 15 C-9 14.34 -9 13.68 -9 13 C-11.31 12.34 -13.62 11.68 -16 11 C-15.67 9.02 -15.34 7.04 -15 5 C-14.94 5.62 -14.88 6.24 -14.81 6.88 C-14 9 -14 9 -11.75 10.12 C-10.84 10.41 -9.94 10.7 -9 11 C-8.17 11.33 -8.17 11.33 -4 13 C-3.88 12.31 -3.76 11.63 -3.63 10.92 C-3.47 10.02 -3.3 9.12 -3.12 8.19 C-2.96 7.29 -2.8 6.4 -2.63 5.48 C-2 3 -2 3 0 0 Z " fill="#C79F66" transform="translate(113,410)"/>
<path d="M0 0 C0.33 0 0.66 0 1 0 C1.35 4.23 0.66 5.77 -2 9 C-3.39 11.3 -4.69 13.65 -6 16 C-6.66 16 -7.32 16 -8 16 C-8.99 19.3 -9.98 22.6 -11 26 C-11.66 26 -12.32 26 -13 26 C-13.1 26.6 -13.21 27.2 -13.31 27.81 C-14.1 30.33 -15.12 31.19 -17 33 C-17.31 33.62 -17.62 34.24 -17.94 34.88 C-19 37 -19 37 -21 39.44 C-23 42 -23 42 -23.94 44.75 C-24.29 45.49 -24.64 46.24 -25 47 C-27.62 47.81 -27.62 47.81 -30 48 C-30.33 49.32 -30.66 50.64 -31 52 C-31.66 52 -32.32 52 -33 52 C-31.67 48.41 -30.17 45.16 -28 42 C-27.34 42 -26.68 42 -26 42 C-26 41.34 -26 40.68 -26 40 C-25.34 40 -24.68 40 -24 40 C-23.79 39.2 -23.59 38.39 -23.38 37.56 C-21.91 33.76 -20.03 30.85 -17.73 27.52 C-15.82 24.74 -14 21.91 -12.19 19.06 C-11.6 18.15 -11.02 17.23 -10.42 16.29 C-9 14 -9 14 -8 12 C-7.34 12 -6.68 12 -6 12 C-5.71 11.09 -5.42 10.19 -5.12 9.25 C-4.23 6.68 -3.29 4.39 -2 2 C-1.34 2 -0.68 2 0 2 C0 1.34 0 0.68 0 0 Z " fill="#BDA469" transform="translate(346,403)"/>
<path d="M0 0 C0.66 0 1.32 0 2 0 C2 0.99 2 1.98 2 3 C1.34 3 0.68 3 0 3 C0 3.66 0 4.32 0 5 C-0.99 5 -1.98 5 -3 5 C-5.58 10.81 -5.9 16.77 -5 23 C-3.37 26.94 -1.28 30.41 1 34 C1.68 35.32 2.36 36.65 3 38 C2.18 38.17 2.18 38.17 -2 39 C-2 38.34 -2 37.68 -2 37 C-2.66 37 -3.32 37 -4 37 C-4.23 36.36 -4.45 35.72 -4.69 35.06 C-5.84 32.38 -7.13 30.06 -8.62 27.56 C-10.73 23.79 -11.75 21.38 -11 17 C-10.33 14.94 -9.59 12.93 -8.75 10.93 C-8 9 -8 9 -7.55 6.86 C-7 5 -7 5 -4.56 3.38 C-3.72 2.92 -2.87 2.47 -2 2 C-1.34 1.34 -0.68 0.68 0 0 Z " fill="#584538" transform="translate(12,254)"/>
<path d="M0 0 C1.32 0.33 2.64 0.66 4 1 C5.11 7.23 5.13 13.31 5.1 19.62 C5.1 20.72 5.09 21.82 5.09 22.95 C5.09 26.45 5.08 29.94 5.06 33.44 C5.06 35.81 5.05 38.19 5.05 40.57 C5.04 46.38 5.02 52.19 5 58 C4.67 58 4.34 58 4 58 C3.67 48.43 3.34 38.86 3 29 C2.67 31.97 2.34 34.94 2 38 C1.67 38 1.34 38 1 38 C0.14 25.32 -0.12 12.71 0 0 Z " fill="#685751" transform="translate(212,293)"/>
<path d="M0 0 C1.95 1.18 1.95 1.18 4 3 C4.61 5.48 4.61 5.48 4.75 8.19 C4.81 9.09 4.86 9.99 4.92 10.92 C4.95 11.61 4.97 12.29 5 13 C5.66 13 6.32 13 7 13 C8.37 15.74 8.13 17.97 8 21 C7.67 21.66 7.34 22.32 7 23 C6.34 23 5.68 23 5 23 C5 23.66 5 24.32 5 25 C-0.45 26.39 -5.37 27.24 -11 27 C-11 30.3 -11 33.6 -11 37 C-11.33 37 -11.66 37 -12 37 C-12.33 33.04 -12.66 29.08 -13 25 C-10.69 24.34 -8.38 23.68 -6 23 C-6 22.34 -6 21.68 -6 21 C-4.02 21 -2.04 21 0 21 C1.72 17.36 1.98 15.8 1 12 C1.2 9.3 1.6 6.68 2 4 C1.34 4 0.68 4 0 4 C0 2.68 0 1.36 0 0 Z " fill="#D1A366" transform="translate(107,368)"/>
<path d="M0 0 C8.76 -0.05 17.52 -0.08 26.29 -0.1 C30.36 -0.11 34.43 -0.13 38.49 -0.15 C42.42 -0.17 46.35 -0.18 50.28 -0.19 C51.78 -0.19 53.28 -0.2 54.77 -0.21 C56.87 -0.23 58.98 -0.23 61.08 -0.23 C61.67 -0.23 61.67 -0.23 64.7 -0.24 C68.1 0.01 70.82 0.78 74 2 C74 2.33 74 2.66 74 3 C61.79 2.83 61.79 2.83 0 2 C0 1.34 0 0.68 0 0 Z " fill="#BC6A4C" transform="translate(295,0)"/>
</g></svg>
